<svg xmlns="http://www.w3.org/2000/svg" xmlns:xlink="http://www.w3.org/1999/xlink" width="500" zoomAndPan="magnify" viewBox="0 0 375 374.999991" height="500" preserveAspectRatio="xMidYMid meet" version="1.0"><defs><g/><clipPath id="79f13d7af3"><path d="M 127 212 L 272 212 L 272 257 L 127 257 Z M 127 212 " clip-rule="nonzero"/></clipPath><clipPath id="9d0bdcd451"><path d="M 136.984375 192.65625 L 271.984375 212.816406 L 262.570312 275.867188 L 127.566406 255.707031 Z M 136.984375 192.65625 " clip-rule="nonzero"/></clipPath><clipPath id="91e7c3a35b"><path d="M 136.984375 192.65625 L 271.984375 212.816406 L 262.570312 275.867188 L 127.566406 255.707031 Z M 136.984375 192.65625 " clip-rule="nonzero"/></clipPath><clipPath id="43f68d187f"><path d="M 62.777344 134.589844 L 134 134.589844 L 134 198.339844 L 62.777344 198.339844 Z M 62.777344 134.589844 " clip-rule="nonzero"/></clipPath><clipPath id="436abaf603"><rect x="0" width="34" y="0" height="53"/></clipPath></defs><g clip-path="url(#79f13d7af3)"><g clip-path="url(#9d0bdcd451)"><g clip-path="url(#91e7c3a35b)"><path fill="#000000" d="M 128.425781 252.496094 C 131.257812 248.90625 242.710938 205.738281 271.632812 213.4375 C 241.917969 215.6875 167.644531 241.320312 144.285156 253.941406 C 145.890625 254.03125 148.035156 253.921875 150.988281 253.488281 C 150.101562 255.007812 141.871094 256.203125 138.234375 256.335938 C 132.382812 256.71875 125.921875 255.671875 128.425781 252.511719 Z M 128.425781 252.496094 " fill-opacity="1" fill-rule="nonzero"/></g></g></g><g fill="#000000" fill-opacity="1"><g transform="translate(104.379071, 233.365105)"><g><path d="M 30.3125 -36.96875 C 29.613281 -35.28125 28.5625 -33.523438 27.15625 -31.703125 C 25.75 -29.890625 24.195312 -28.132812 22.5 -26.4375 C 20.8125 -24.75 19.140625 -23.21875 17.484375 -21.84375 L 18.0625 -21.984375 C 20.71875 -22.617188 23.039062 -22.71875 25.03125 -22.28125 C 27.03125 -21.851562 28.503906 -20.921875 29.453125 -19.484375 C 30.410156 -18.054688 30.566406 -16.132812 29.921875 -13.71875 C 29.335938 -11.757812 28.265625 -9.78125 26.703125 -7.78125 C 25.140625 -5.78125 23.285156 -3.910156 21.140625 -2.171875 C 19.003906 -0.429688 16.789062 1.054688 14.5 2.296875 C 12.207031 3.535156 10.09375 4.390625 8.15625 4.859375 C 6.726562 5.203125 5.460938 5.269531 4.359375 5.0625 C 3.253906 4.863281 2.425781 4.335938 1.875 3.484375 C 1.6875 3.171875 1.734375 2.984375 2.015625 2.921875 C 2.304688 2.921875 2.632812 2.890625 3 2.828125 C 3.363281 2.765625 3.738281 2.6875 4.125 2.59375 C 5.820312 2.1875 7.710938 1.410156 9.796875 0.265625 C 11.890625 -0.867188 13.992188 -2.238281 16.109375 -3.84375 C 18.234375 -5.457031 20.15625 -7.125 21.875 -8.84375 C 23.59375 -10.570312 24.929688 -12.222656 25.890625 -13.796875 C 26.859375 -15.367188 27.234375 -16.722656 27.015625 -17.859375 C 26.796875 -18.992188 25.773438 -19.726562 23.953125 -20.0625 C 23.160156 -20.226562 22.304688 -20.269531 21.390625 -20.1875 C 20.472656 -20.113281 19.515625 -19.960938 18.515625 -19.734375 C 17.191406 -19.410156 15.847656 -18.953125 14.484375 -18.359375 C 13.117188 -17.773438 11.820312 -17.101562 10.59375 -16.34375 C 9.84375 -13.882812 9.191406 -11.425781 8.640625 -8.96875 C 8.097656 -6.507812 7.71875 -4.054688 7.5 -1.609375 C 6.007812 -1.429688 5.0625 -1.9375 4.65625 -3.125 C 4.257812 -4.3125 4.191406 -5.867188 4.453125 -7.796875 C 4.722656 -9.722656 5.160156 -11.734375 5.765625 -13.828125 C 6.378906 -15.929688 6.976562 -17.828125 7.5625 -19.515625 C 8.15625 -21.203125 8.5625 -22.328125 8.78125 -22.890625 C 9.820312 -25.828125 10.910156 -28.625 12.046875 -31.28125 C 13.191406 -33.945312 14.234375 -36.289062 15.171875 -38.3125 C 16.109375 -40.34375 16.789062 -41.816406 17.21875 -42.734375 C 18.601562 -42.316406 19.507812 -41.925781 19.9375 -41.5625 C 20.375 -41.195312 20.285156 -40.359375 19.671875 -39.046875 C 18.546875 -36.441406 17.382812 -33.789062 16.1875 -31.09375 C 15 -28.394531 13.875 -25.632812 12.8125 -22.8125 C 14.269531 -23.976562 15.851562 -25.421875 17.5625 -27.140625 C 19.28125 -28.859375 20.925781 -30.691406 22.5 -32.640625 C 24.082031 -34.597656 25.375 -36.484375 26.375 -38.296875 C 27.375 -40.109375 27.894531 -41.703125 27.9375 -43.078125 C 27.976562 -44.460938 27.351562 -45.4375 26.0625 -46 C 24.988281 -46.5625 23.738281 -46.828125 22.3125 -46.796875 C 20.882812 -46.773438 19.289062 -46.554688 17.53125 -46.140625 C 14.882812 -45.503906 12.097656 -44.488281 9.171875 -43.09375 C 6.242188 -41.695312 3.457031 -40.066406 0.8125 -38.203125 C -1.820312 -36.347656 -4.078125 -34.410156 -5.953125 -32.390625 C -7.835938 -30.367188 -9.101562 -28.40625 -9.75 -26.5 C -10.40625 -24.59375 -10.148438 -22.9375 -8.984375 -21.53125 C -8.410156 -20.851562 -7.753906 -20.425781 -7.015625 -20.25 C -6.285156 -20.070312 -5.632812 -20.007812 -5.0625 -20.0625 C -4.488281 -20.113281 -4.195312 -20.113281 -4.1875 -20.0625 C -4.0625 -20.03125 -4.132812 -19.90625 -4.40625 -19.6875 C -4.675781 -19.476562 -5.054688 -19.316406 -5.546875 -19.203125 C -6.210938 -19.046875 -7.050781 -19.019531 -8.0625 -19.125 C -9.082031 -19.238281 -10.039062 -19.632812 -10.9375 -20.3125 C -11.832031 -21 -12.523438 -22.132812 -13.015625 -23.71875 C -13.390625 -25.320312 -13.300781 -26.988281 -12.75 -28.71875 C -12.207031 -30.457031 -11.4375 -32.03125 -10.4375 -33.4375 C -8.382812 -36.25 -5.976562 -38.726562 -3.21875 -40.875 C -0.46875 -43.019531 2.40625 -44.8125 5.40625 -46.25 C 8.40625 -47.695312 11.34375 -48.765625 14.21875 -49.453125 C 17.082031 -50.140625 19.769531 -50.40625 22.28125 -50.25 C 24.789062 -50.09375 26.820312 -49.46875 28.375 -48.375 C 29.757812 -47.4375 30.691406 -45.960938 31.171875 -43.953125 C 31.660156 -41.941406 31.375 -39.613281 30.3125 -36.96875 Z M 30.3125 -36.96875 "/></g></g></g><g fill="#000000" fill-opacity="1"><g transform="translate(138.353567, 225.236303)"><g><path d="M 7.453125 -42.25 C 8.054688 -42.394531 8.679688 -42.328125 9.328125 -42.046875 C 9.984375 -41.765625 10.453125 -41.390625 10.734375 -40.921875 C 10.898438 -40.734375 10.9375 -40.515625 10.84375 -40.265625 C 10.757812 -40.015625 10.6875 -39.796875 10.625 -39.609375 C 9.832031 -37.597656 9.0625 -35.585938 8.3125 -33.578125 C 7.5625 -31.566406 6.796875 -29.535156 6.015625 -27.484375 C 5.878906 -27.085938 5.78125 -26.882812 5.71875 -26.875 C 5.613281 -26.84375 5.441406 -27.066406 5.203125 -27.546875 C 4.796875 -28.796875 4.632812 -30.273438 4.71875 -31.984375 C 4.800781 -33.691406 5.035156 -35.390625 5.421875 -37.078125 C 5.804688 -38.773438 6.238281 -40.207031 6.71875 -41.375 C 7 -41.90625 7.242188 -42.195312 7.453125 -42.25 Z M 12.578125 -20.84375 C 12.972656 -20.9375 13.320312 -20.695312 13.625 -20.125 C 13.375 -19.488281 13.109375 -18.828125 12.828125 -18.140625 C 12.554688 -17.460938 12.332031 -16.78125 12.15625 -16.09375 C 11.8125 -15.3125 11.300781 -14.203125 10.625 -12.765625 C 9.945312 -11.328125 9.164062 -9.832031 8.28125 -8.28125 C 7.40625 -6.726562 6.492188 -5.367188 5.546875 -4.203125 C 4.609375 -3.035156 3.722656 -2.351562 2.890625 -2.15625 C 1.734375 -1.882812 0.613281 -2.242188 -0.46875 -3.234375 C -1.550781 -4.234375 -1.988281 -5.519531 -1.78125 -7.09375 C -1.707031 -7.519531 -1.5625 -8.382812 -1.34375 -9.6875 C -1.132812 -10.988281 -0.867188 -12.476562 -0.546875 -14.15625 C -0.222656 -15.832031 0.109375 -17.472656 0.453125 -19.078125 C 0.804688 -20.679688 1.15625 -22.019531 1.5 -23.09375 C 1.851562 -24.164062 2.171875 -24.734375 2.453125 -24.796875 C 2.554688 -24.828125 2.710938 -24.835938 2.921875 -24.828125 C 3.128906 -24.816406 3.359375 -24.78125 3.609375 -24.71875 C 4.285156 -24.59375 4.984375 -24.351562 5.703125 -24 C 6.429688 -23.65625 6.675781 -23.015625 6.4375 -22.078125 L 6.390625 -21.890625 C 5.753906 -20.171875 5.15625 -18.335938 4.59375 -16.390625 C 4.039062 -14.453125 3.550781 -12.554688 3.125 -10.703125 C 3.070312 -10.460938 2.945312 -9.835938 2.75 -8.828125 C 2.550781 -7.816406 2.429688 -6.835938 2.390625 -5.890625 C 2.347656 -4.953125 2.519531 -4.414062 2.90625 -4.28125 C 2.96875 -4.238281 3.03125 -4.226562 3.09375 -4.25 C 3.300781 -4.289062 3.648438 -4.539062 4.140625 -5 C 5.972656 -7.300781 7.53125 -9.800781 8.8125 -12.5 C 10.09375 -15.195312 11.304688 -17.910156 12.453125 -20.640625 C 12.484375 -20.765625 12.507812 -20.828125 12.53125 -20.828125 C 12.5625 -20.835938 12.578125 -20.84375 12.578125 -20.84375 Z M 12.578125 -20.84375 "/></g></g></g><g fill="#000000" fill-opacity="1"><g transform="translate(149.182419, 222.645371)"><g><path d="M -9.15625 -27.265625 C -9.53125 -27.171875 -9.816406 -27.421875 -10.015625 -28.015625 C -10.210938 -28.609375 -10.101562 -28.984375 -9.6875 -29.140625 L 3.671875 -34.359375 C 4.285156 -36.660156 4.882812 -38.59375 5.46875 -40.15625 C 6.050781 -41.71875 6.59375 -42.675781 7.09375 -43.03125 C 7.644531 -43.40625 8.164062 -43.648438 8.65625 -43.765625 C 9.875 -44.054688 10.851562 -43.878906 11.59375 -43.234375 C 12.332031 -42.597656 12.53125 -42.003906 12.1875 -41.453125 C 11.457031 -40.398438 10.75 -38.859375 10.0625 -36.828125 C 11.664062 -37.398438 13.253906 -37.988281 14.828125 -38.59375 C 16.398438 -39.207031 17.9375 -39.8125 19.4375 -40.40625 C 20.03125 -40.59375 20.414062 -40.375 20.59375 -39.75 C 20.769531 -39.125 20.726562 -38.445312 20.46875 -37.71875 C 20.207031 -36.988281 19.707031 -36.472656 18.96875 -36.171875 C 17.269531 -35.648438 15.566406 -35.128906 13.859375 -34.609375 C 12.160156 -34.085938 10.445312 -33.5625 8.71875 -33.03125 C 7.820312 -30.1875 6.941406 -27.03125 6.078125 -23.5625 C 5.210938 -20.101562 4.453125 -16.570312 3.796875 -12.96875 C 3.140625 -9.375 2.65625 -5.976562 2.34375 -2.78125 C 2.03125 0.40625 1.988281 3.078125 2.21875 5.234375 C 1.207031 5.421875 0.457031 5.085938 -0.03125 4.234375 C -0.519531 3.390625 -0.84375 2.390625 -1 1.234375 C -1.164062 0.0859375 -1.238281 -0.804688 -1.21875 -1.453125 C -1.226562 -2.960938 -1.117188 -4.878906 -0.890625 -7.203125 C -0.660156 -9.535156 -0.351562 -12.085938 0.03125 -14.859375 C 0.414062 -17.640625 0.863281 -20.445312 1.375 -23.28125 C 1.894531 -26.113281 2.4375 -28.789062 3 -31.3125 C 1 -30.707031 -1 -30.0625 -3 -29.375 C -5 -28.695312 -6.992188 -28.007812 -8.984375 -27.3125 Z M -9.15625 -27.265625 "/></g></g></g><g fill="#000000" fill-opacity="1"><g transform="translate(158.027358, 220.529114)"><g><path d="M 5.421875 -1.109375 C 3.710938 -0.703125 2.300781 -0.976562 1.1875 -1.9375 C -0.375 -3.132812 -1.363281 -4.660156 -1.78125 -6.515625 C -2.195312 -8.367188 -2.210938 -10.316406 -1.828125 -12.359375 C -1.441406 -14.398438 -0.800781 -16.347656 0.09375 -18.203125 C 1 -20.054688 1.988281 -21.546875 3.0625 -22.671875 C 3.84375 -23.492188 4.726562 -24.023438 5.71875 -24.265625 C 6.988281 -24.566406 8.15625 -24.316406 9.21875 -23.515625 C 10.28125 -22.722656 10.832031 -21.640625 10.875 -20.265625 C 10.894531 -19.984375 10.890625 -19.707031 10.859375 -19.4375 C 10.835938 -19.164062 10.800781 -18.90625 10.75 -18.65625 L 10.796875 -18.484375 C 10.660156 -17.578125 10.316406 -16.488281 9.765625 -15.21875 C 9.222656 -13.957031 8.546875 -12.820312 7.734375 -11.8125 C 6.929688 -10.800781 6.070312 -10.160156 5.15625 -9.890625 C 4.050781 -9.628906 3.164062 -9.765625 2.5 -10.296875 C 2.195312 -8.421875 2.160156 -6.828125 2.390625 -5.515625 C 2.617188 -4.203125 3.359375 -3.632812 4.609375 -3.8125 C 6.097656 -4.164062 7.503906 -5.023438 8.828125 -6.390625 C 10.160156 -7.753906 11.378906 -9.34375 12.484375 -11.15625 C 13.597656 -12.96875 14.578125 -14.789062 15.421875 -16.625 C 16.265625 -18.457031 16.960938 -20.054688 17.515625 -21.421875 C 17.492188 -21.460938 17.539062 -21.492188 17.65625 -21.515625 C 17.820312 -21.554688 18.019531 -21.53125 18.25 -21.4375 C 18.476562 -21.351562 18.628906 -21.144531 18.703125 -20.8125 C 18.554688 -20.4375 18.347656 -19.894531 18.078125 -19.1875 C 17.816406 -18.476562 17.5 -17.671875 17.125 -16.765625 C 16.613281 -15.535156 15.984375 -14.101562 15.234375 -12.46875 C 14.492188 -10.832031 13.644531 -9.21875 12.6875 -7.625 C 11.726562 -6.03125 10.644531 -4.632812 9.4375 -3.4375 C 8.238281 -2.238281 6.898438 -1.460938 5.421875 -1.109375 Z M 7.765625 -21.265625 C 7.265625 -21.148438 6.703125 -20.625 6.078125 -19.6875 C 5.460938 -18.75 4.863281 -17.597656 4.28125 -16.234375 C 3.695312 -14.867188 3.210938 -13.441406 2.828125 -11.953125 C 3.078125 -11.609375 3.394531 -11.484375 3.78125 -11.578125 C 4.320312 -11.703125 4.957031 -12.195312 5.6875 -13.0625 C 6.414062 -13.9375 7.09375 -14.957031 7.71875 -16.125 C 8.34375 -17.300781 8.726562 -18.429688 8.875 -19.515625 C 8.875 -20.265625 8.78125 -20.796875 8.59375 -21.109375 C 8.363281 -21.296875 8.085938 -21.347656 7.765625 -21.265625 Z M 7.765625 -21.265625 "/></g></g></g><g fill="#000000" fill-opacity="1"><g transform="translate(174.311967, 216.632828)"><g><path d="M 11.90625 -29.859375 C 12.957031 -30.109375 14.019531 -29.878906 15.09375 -29.171875 C 16.164062 -28.460938 16.992188 -27.484375 17.578125 -26.234375 C 18.179688 -24.921875 18.394531 -23.109375 18.21875 -20.796875 C 18.039062 -18.484375 17.628906 -16.050781 16.984375 -13.5 C 16.347656 -10.957031 15.5625 -8.597656 14.625 -6.421875 C 13.6875 -4.242188 12.738281 -2.601562 11.78125 -1.5 C 11.09375 -0.757812 10.4375 -0.21875 9.8125 0.125 C 9.195312 0.476562 8.425781 0.769531 7.5 1 C 5.875 1.03125 4.644531 0.597656 3.8125 -0.296875 C 2.988281 -1.203125 2.425781 -2.40625 2.125 -3.90625 C 2.125 -3.675781 2.097656 -3.484375 2.046875 -3.328125 C 1.992188 -3.171875 1.929688 -3.023438 1.859375 -2.890625 C 1.796875 -2.640625 1.75 -2.4375 1.71875 -2.28125 C 1.695312 -2.132812 1.601562 -2.070312 1.4375 -2.09375 C 0.5 -2.332031 -0.160156 -2.898438 -0.546875 -3.796875 C -0.941406 -4.691406 -1.203125 -5.535156 -1.328125 -6.328125 C -1.429688 -7.929688 -1.300781 -9.984375 -0.9375 -12.484375 C -0.570312 -14.992188 -0.078125 -17.675781 0.546875 -20.53125 C 1.171875 -23.382812 1.863281 -26.203125 2.625 -28.984375 C 3.394531 -31.765625 4.113281 -34.253906 4.78125 -36.453125 C 5.445312 -38.648438 6.015625 -40.363281 6.484375 -41.59375 C 6.773438 -42.289062 7.070312 -42.863281 7.375 -43.3125 C 7.675781 -43.769531 8.1875 -44.082031 8.90625 -44.25 C 9.726562 -44.445312 10.476562 -44.40625 11.15625 -44.125 C 11.832031 -43.851562 12.347656 -43.515625 12.703125 -43.109375 C 13.066406 -42.703125 13.144531 -42.351562 12.9375 -42.0625 C 12.257812 -41.207031 11.492188 -39.757812 10.640625 -37.71875 C 9.785156 -35.6875 8.878906 -33.316406 7.921875 -30.609375 C 6.972656 -27.898438 6.082031 -25.050781 5.25 -22.0625 C 4.414062 -19.070312 3.703125 -16.160156 3.109375 -13.328125 C 3.796875 -15.535156 4.554688 -17.757812 5.390625 -20 C 6.234375 -22.238281 7.113281 -24.222656 8.03125 -25.953125 C 8.957031 -27.679688 9.898438 -28.835938 10.859375 -29.421875 C 11.023438 -29.523438 11.1875 -29.609375 11.34375 -29.671875 C 11.5 -29.742188 11.6875 -29.804688 11.90625 -29.859375 Z M 3.828125 -8.859375 C 3.773438 -8.328125 3.71875 -7.578125 3.65625 -6.609375 C 3.601562 -5.640625 3.640625 -4.695312 3.765625 -3.78125 C 3.898438 -2.875 4.160156 -2.210938 4.546875 -1.796875 C 4.984375 -1.484375 5.335938 -1.359375 5.609375 -1.421875 C 6.210938 -1.566406 6.800781 -2.128906 7.375 -3.109375 C 7.957031 -4.097656 8.492188 -5.21875 8.984375 -6.46875 C 9.472656 -7.726562 9.878906 -8.890625 10.203125 -9.953125 C 10.535156 -11.023438 10.75 -11.722656 10.84375 -12.046875 C 11.03125 -12.710938 11.296875 -13.726562 11.640625 -15.09375 C 11.984375 -16.46875 12.3125 -17.960938 12.625 -19.578125 C 12.9375 -21.203125 13.140625 -22.679688 13.234375 -24.015625 C 13.328125 -25.347656 13.234375 -26.328125 12.953125 -26.953125 C 12.710938 -27.492188 12.457031 -27.726562 12.1875 -27.65625 C 11.625 -27.519531 11.003906 -26.859375 10.328125 -25.671875 C 9.648438 -24.492188 8.941406 -23.015625 8.203125 -21.234375 C 7.460938 -19.453125 6.734375 -17.554688 6.015625 -15.546875 C 5.296875 -13.546875 4.632812 -11.625 4.03125 -9.78125 C 4.007812 -9.664062 3.984375 -9.546875 3.953125 -9.421875 C 3.929688 -9.304688 3.890625 -9.117188 3.828125 -8.859375 Z M 3.828125 -8.859375 "/></g></g></g><g fill="#000000" fill-opacity="1"><g transform="translate(195.969671, 211.450965)"><g><path d="M 2.65625 -1.34375 C 2.4375 -1.289062 2.21875 -1.28125 2 -1.3125 C 1.789062 -1.34375 1.566406 -1.359375 1.328125 -1.359375 C 0.160156 -1.609375 -0.648438 -2.40625 -1.109375 -3.75 C -1.578125 -5.09375 -1.753906 -6.753906 -1.640625 -8.734375 C -1.535156 -10.710938 -1.269531 -12.773438 -0.84375 -14.921875 C -0.425781 -17.066406 0.078125 -19.082031 0.671875 -20.96875 C 1.273438 -22.851562 1.847656 -24.351562 2.390625 -25.46875 C 2.660156 -26.25 3.15625 -26.722656 3.875 -26.890625 C 4.539062 -27.054688 5.210938 -26.925781 5.890625 -26.5 C 6.578125 -26.082031 7.0625 -25.523438 7.34375 -24.828125 C 7.050781 -24.359375 6.644531 -23.429688 6.125 -22.046875 C 5.613281 -20.671875 5.101562 -19.078125 4.59375 -17.265625 C 4.09375 -15.460938 3.660156 -13.671875 3.296875 -11.890625 C 2.941406 -10.109375 2.734375 -8.613281 2.671875 -7.40625 C 2.617188 -6.195312 2.785156 -5.492188 3.171875 -5.296875 C 3.460938 -5.367188 3.863281 -5.84375 4.375 -6.71875 C 4.894531 -7.601562 5.46875 -8.734375 6.09375 -10.109375 C 6.726562 -11.484375 7.363281 -12.914062 8 -14.40625 C 8.632812 -15.894531 9.210938 -17.253906 9.734375 -18.484375 C 9.835938 -19.035156 9.992188 -19.71875 10.203125 -20.53125 C 10.410156 -21.34375 10.722656 -22.085938 11.140625 -22.765625 C 11.566406 -23.453125 12.082031 -23.867188 12.6875 -24.015625 C 13.414062 -24.191406 14.191406 -24.1875 15.015625 -24 C 15.847656 -23.820312 16.144531 -23.382812 15.90625 -22.6875 C 15.800781 -22.363281 15.625 -21.632812 15.375 -20.5 C 15.125 -19.363281 14.882812 -18.113281 14.65625 -16.75 C 14.4375 -15.382812 14.300781 -14.171875 14.25 -13.109375 C 14.300781 -11.660156 14.457031 -10.789062 14.71875 -10.5 C 14.863281 -10.363281 15.019531 -10.316406 15.1875 -10.359375 C 15.625 -10.460938 16.128906 -10.945312 16.703125 -11.8125 C 17.285156 -12.6875 17.894531 -13.734375 18.53125 -14.953125 C 19.164062 -16.179688 19.757812 -17.414062 20.3125 -18.65625 C 20.863281 -19.90625 21.320312 -20.976562 21.6875 -21.875 C 22.0625 -22.78125 22.253906 -23.296875 22.265625 -23.421875 C 22.265625 -23.421875 22.273438 -23.4375 22.296875 -23.46875 C 22.328125 -23.507812 22.367188 -23.535156 22.421875 -23.546875 C 22.867188 -23.648438 23.25 -23.390625 23.5625 -22.765625 C 23.3125 -22.117188 22.875 -20.960938 22.25 -19.296875 C 21.632812 -17.640625 20.898438 -15.890625 20.046875 -14.046875 C 19.203125 -12.210938 18.269531 -10.578125 17.25 -9.140625 C 16.226562 -7.703125 15.164062 -6.851562 14.0625 -6.59375 C 13.507812 -6.457031 12.835938 -6.59375 12.046875 -7 C 11.148438 -7.59375 10.523438 -8.503906 10.171875 -9.734375 C 9.816406 -10.960938 9.597656 -12.117188 9.515625 -13.203125 L 9.46875 -13.71875 C 9.3125 -13.15625 8.976562 -12.242188 8.46875 -10.984375 C 7.957031 -9.734375 7.363281 -8.382812 6.6875 -6.9375 C 6.007812 -5.488281 5.316406 -4.226562 4.609375 -3.15625 C 3.910156 -2.09375 3.257812 -1.488281 2.65625 -1.34375 Z M 2.65625 -1.34375 "/></g></g></g><g fill="#000000" fill-opacity="1"><g transform="translate(216.966078, 206.427325)"><g><path d="M 16.890625 -44.515625 C 17.984375 -44.773438 18.972656 -44.628906 19.859375 -44.078125 C 20.753906 -43.535156 21.054688 -43.023438 20.765625 -42.546875 C 20.304688 -41.785156 19.769531 -40.359375 19.15625 -38.265625 C 18.539062 -36.171875 17.925781 -33.738281 17.3125 -30.96875 C 16.695312 -28.195312 16.125 -25.363281 15.59375 -22.46875 C 15.0625 -19.570312 14.644531 -16.878906 14.34375 -14.390625 C 14.039062 -11.898438 13.890625 -9.914062 13.890625 -8.4375 C 13.890625 -6.957031 14.113281 -6.269531 14.5625 -6.375 C 14.894531 -6.457031 15.378906 -7.039062 16.015625 -8.125 C 16.660156 -9.207031 17.359375 -10.535156 18.109375 -12.109375 C 18.867188 -13.691406 19.609375 -15.296875 20.328125 -16.921875 C 21.054688 -18.554688 21.664062 -19.984375 22.15625 -21.203125 C 22.644531 -22.421875 22.929688 -23.21875 23.015625 -23.59375 C 23.066406 -23.664062 23.148438 -23.71875 23.265625 -23.75 C 23.691406 -23.851562 24.066406 -23.59375 24.390625 -22.96875 C 24.285156 -22.644531 24.128906 -22.195312 23.921875 -21.625 C 23.710938 -21.050781 23.457031 -20.410156 23.15625 -19.703125 C 23.195312 -19.535156 23.175781 -19.382812 23.09375 -19.25 C 22.738281 -18.289062 22.21875 -16.941406 21.53125 -15.203125 C 20.84375 -13.460938 20.066406 -11.660156 19.203125 -9.796875 C 18.347656 -7.929688 17.453125 -6.316406 16.515625 -4.953125 C 15.585938 -3.585938 14.707031 -2.804688 13.875 -2.609375 C 13.769531 -2.585938 13.65625 -2.578125 13.53125 -2.578125 C 13.414062 -2.578125 13.300781 -2.59375 13.1875 -2.625 C 12.75 -2.695312 12.285156 -2.90625 11.796875 -3.25 C 11.304688 -3.601562 10.867188 -4.109375 10.484375 -4.765625 C 9.960938 -5.992188 9.613281 -7.328125 9.4375 -8.765625 C 9.257812 -10.210938 9.265625 -11.773438 9.453125 -13.453125 C 9.210938 -12.515625 8.875 -11.367188 8.4375 -10.015625 C 8 -8.671875 7.507812 -7.304688 6.96875 -5.921875 C 6.4375 -4.535156 5.90625 -3.296875 5.375 -2.203125 C 4.851562 -1.109375 4.335938 -0.390625 3.828125 -0.046875 C 3.734375 0.0351562 3.601562 0.09375 3.4375 0.125 C 3.28125 0.164062 3.144531 0.203125 3.03125 0.234375 C 2.195312 0.429688 1.429688 0.222656 0.734375 -0.390625 C 0.0351562 -1.015625 -0.4375 -1.734375 -0.6875 -2.546875 C -1.25 -4.160156 -1.5 -6.171875 -1.4375 -8.578125 C -1.375 -10.984375 -1.0625 -13.382812 -0.5 -15.78125 C 0.0507812 -18.1875 0.832031 -20.265625 1.84375 -22.015625 C 2.851562 -23.773438 4.046875 -24.820312 5.421875 -25.15625 C 6.515625 -25.414062 7.476562 -25.207031 8.3125 -24.53125 C 9.15625 -23.863281 9.753906 -23.023438 10.109375 -22.015625 C 10.703125 -25.640625 11.394531 -29.191406 12.1875 -32.671875 C 12.988281 -36.160156 13.707031 -39.117188 14.34375 -41.546875 C 14.5625 -42.359375 14.816406 -43.003906 15.109375 -43.484375 C 15.410156 -43.960938 16.003906 -44.304688 16.890625 -44.515625 Z M 7.59375 -21.5625 C 6.988281 -21.414062 6.382812 -20.644531 5.78125 -19.25 C 5.1875 -17.863281 4.679688 -16.210938 4.265625 -14.296875 C 3.847656 -12.390625 3.523438 -10.519531 3.296875 -8.6875 C 3.066406 -6.851562 3.007812 -5.460938 3.125 -4.515625 C 3.238281 -3.785156 3.429688 -3.453125 3.703125 -3.515625 C 4.035156 -3.597656 4.441406 -4.085938 4.921875 -4.984375 C 5.410156 -5.878906 5.9375 -7.019531 6.5 -8.40625 C 7.070312 -9.800781 7.628906 -11.257812 8.171875 -12.78125 C 8.710938 -14.3125 9.179688 -15.710938 9.578125 -16.984375 C 9.640625 -17.398438 9.691406 -17.710938 9.734375 -17.921875 C 9.773438 -18.140625 9.804688 -18.457031 9.828125 -18.875 C 9.734375 -19.257812 9.488281 -19.835938 9.09375 -20.609375 C 8.707031 -21.390625 8.207031 -21.707031 7.59375 -21.5625 Z M 7.59375 -21.5625 "/></g></g></g><g fill="#000000" fill-opacity="1"><g transform="translate(238.706455, 201.225681)"><g><path d="M 16.890625 -44.515625 C 17.984375 -44.773438 18.972656 -44.628906 19.859375 -44.078125 C 20.753906 -43.535156 21.054688 -43.023438 20.765625 -42.546875 C 20.304688 -41.785156 19.769531 -40.359375 19.15625 -38.265625 C 18.539062 -36.171875 17.925781 -33.738281 17.3125 -30.96875 C 16.695312 -28.195312 16.125 -25.363281 15.59375 -22.46875 C 15.0625 -19.570312 14.644531 -16.878906 14.34375 -14.390625 C 14.039062 -11.898438 13.890625 -9.914062 13.890625 -8.4375 C 13.890625 -6.957031 14.113281 -6.269531 14.5625 -6.375 C 14.894531 -6.457031 15.378906 -7.039062 16.015625 -8.125 C 16.660156 -9.207031 17.359375 -10.535156 18.109375 -12.109375 C 18.867188 -13.691406 19.609375 -15.296875 20.328125 -16.921875 C 21.054688 -18.554688 21.664062 -19.984375 22.15625 -21.203125 C 22.644531 -22.421875 22.929688 -23.21875 23.015625 -23.59375 C 23.066406 -23.664062 23.148438 -23.71875 23.265625 -23.75 C 23.691406 -23.851562 24.066406 -23.59375 24.390625 -22.96875 C 24.285156 -22.644531 24.128906 -22.195312 23.921875 -21.625 C 23.710938 -21.050781 23.457031 -20.410156 23.15625 -19.703125 C 23.195312 -19.535156 23.175781 -19.382812 23.09375 -19.25 C 22.738281 -18.289062 22.21875 -16.941406 21.53125 -15.203125 C 20.84375 -13.460938 20.066406 -11.660156 19.203125 -9.796875 C 18.347656 -7.929688 17.453125 -6.316406 16.515625 -4.953125 C 15.585938 -3.585938 14.707031 -2.804688 13.875 -2.609375 C 13.769531 -2.585938 13.65625 -2.578125 13.53125 -2.578125 C 13.414062 -2.578125 13.300781 -2.59375 13.1875 -2.625 C 12.75 -2.695312 12.285156 -2.90625 11.796875 -3.25 C 11.304688 -3.601562 10.867188 -4.109375 10.484375 -4.765625 C 9.960938 -5.992188 9.613281 -7.328125 9.4375 -8.765625 C 9.257812 -10.210938 9.265625 -11.773438 9.453125 -13.453125 C 9.210938 -12.515625 8.875 -11.367188 8.4375 -10.015625 C 8 -8.671875 7.507812 -7.304688 6.96875 -5.921875 C 6.4375 -4.535156 5.90625 -3.296875 5.375 -2.203125 C 4.851562 -1.109375 4.335938 -0.390625 3.828125 -0.046875 C 3.734375 0.0351562 3.601562 0.09375 3.4375 0.125 C 3.28125 0.164062 3.144531 0.203125 3.03125 0.234375 C 2.195312 0.429688 1.429688 0.222656 0.734375 -0.390625 C 0.0351562 -1.015625 -0.4375 -1.734375 -0.6875 -2.546875 C -1.25 -4.160156 -1.5 -6.171875 -1.4375 -8.578125 C -1.375 -10.984375 -1.0625 -13.382812 -0.5 -15.78125 C 0.0507812 -18.1875 0.832031 -20.265625 1.84375 -22.015625 C 2.851562 -23.773438 4.046875 -24.820312 5.421875 -25.15625 C 6.515625 -25.414062 7.476562 -25.207031 8.3125 -24.53125 C 9.15625 -23.863281 9.753906 -23.023438 10.109375 -22.015625 C 10.703125 -25.640625 11.394531 -29.191406 12.1875 -32.671875 C 12.988281 -36.160156 13.707031 -39.117188 14.34375 -41.546875 C 14.5625 -42.359375 14.816406 -43.003906 15.109375 -43.484375 C 15.410156 -43.960938 16.003906 -44.304688 16.890625 -44.515625 Z M 7.59375 -21.5625 C 6.988281 -21.414062 6.382812 -20.644531 5.78125 -19.25 C 5.1875 -17.863281 4.679688 -16.210938 4.265625 -14.296875 C 3.847656 -12.390625 3.523438 -10.519531 3.296875 -8.6875 C 3.066406 -6.851562 3.007812 -5.460938 3.125 -4.515625 C 3.238281 -3.785156 3.429688 -3.453125 3.703125 -3.515625 C 4.035156 -3.597656 4.441406 -4.085938 4.921875 -4.984375 C 5.410156 -5.878906 5.9375 -7.019531 6.5 -8.40625 C 7.070312 -9.800781 7.628906 -11.257812 8.171875 -12.78125 C 8.710938 -14.3125 9.179688 -15.710938 9.578125 -16.984375 C 9.640625 -17.398438 9.691406 -17.710938 9.734375 -17.921875 C 9.773438 -18.140625 9.804688 -18.457031 9.828125 -18.875 C 9.734375 -19.257812 9.488281 -19.835938 9.09375 -20.609375 C 8.707031 -21.390625 8.207031 -21.707031 7.59375 -21.5625 Z M 7.59375 -21.5625 "/></g></g></g><g fill="#000000" fill-opacity="1"><g transform="translate(260.446832, 196.024037)"><g><path d="M 1.25 16.5625 C -0.789062 17.050781 -2.46875 16.679688 -3.78125 15.453125 C -5.09375 14.222656 -6.078125 12.722656 -6.734375 10.953125 C -6.847656 10.753906 -6.941406 10.5 -7.015625 10.1875 C -7.085938 9.882812 -6.96875 9.753906 -6.65625 9.796875 C -6.257812 9.765625 -5.929688 10.039062 -5.671875 10.625 C -5.222656 11.738281 -4.632812 12.660156 -3.90625 13.390625 C -3.1875 14.117188 -2.140625 14.320312 -0.765625 14 C 0.941406 13.582031 2.410156 12.410156 3.640625 10.484375 C 4.867188 8.566406 5.910156 6.222656 6.765625 3.453125 C 7.617188 0.679688 8.316406 -2.191406 8.859375 -5.171875 C 9.398438 -8.148438 9.835938 -10.878906 10.171875 -13.359375 C 9.929688 -12.660156 9.597656 -11.617188 9.171875 -10.234375 C 8.742188 -8.859375 8.242188 -7.425781 7.671875 -5.9375 C 7.097656 -4.457031 6.460938 -3.15625 5.765625 -2.03125 C 5.066406 -0.90625 4.300781 -0.269531 3.46875 -0.125 C 2.238281 0.101562 1.253906 -0.15625 0.515625 -0.90625 C -0.210938 -1.664062 -0.722656 -2.535156 -1.015625 -3.515625 C -1.554688 -5.304688 -1.734375 -7.460938 -1.546875 -9.984375 C -1.367188 -12.503906 -0.953125 -15.007812 -0.296875 -17.5 C 0.359375 -19.988281 1.070312 -22.050781 1.84375 -23.6875 C 1.945312 -24.007812 2.070312 -24.273438 2.21875 -24.484375 C 2.375 -24.691406 2.585938 -24.832031 2.859375 -24.90625 C 3.460938 -25.050781 4.070312 -25.0625 4.6875 -24.9375 C 5.300781 -24.820312 5.796875 -24.488281 6.171875 -23.9375 C 6.609375 -23.519531 6.644531 -23 6.28125 -22.375 C 5.625 -21.175781 5.050781 -19.71875 4.5625 -18 C 4.070312 -16.28125 3.675781 -14.71875 3.375 -13.3125 C 3.3125 -13.050781 3.171875 -12.34375 2.953125 -11.1875 C 2.742188 -10.03125 2.554688 -8.75 2.390625 -7.34375 C 2.234375 -5.9375 2.203125 -4.734375 2.296875 -3.734375 C 2.390625 -2.734375 2.6875 -2.289062 3.1875 -2.40625 C 3.675781 -2.53125 4.269531 -3.242188 4.96875 -4.546875 C 5.675781 -5.859375 6.40625 -7.503906 7.15625 -9.484375 C 7.914062 -11.472656 8.640625 -13.523438 9.328125 -15.640625 C 10.015625 -17.753906 10.613281 -19.691406 11.125 -21.453125 C 11.632812 -23.210938 11.992188 -24.523438 12.203125 -25.390625 C 12.222656 -25.742188 12.375 -25.992188 12.65625 -26.140625 C 12.945312 -26.296875 13.253906 -26.414062 13.578125 -26.5 C 14.242188 -26.65625 14.972656 -26.65625 15.765625 -26.5 C 16.554688 -26.34375 16.894531 -25.78125 16.78125 -24.8125 C 16.570312 -23.957031 16.394531 -23.054688 16.25 -22.109375 C 16.101562 -21.171875 15.9375 -20.238281 15.75 -19.3125 C 15.46875 -17.789062 15.140625 -15.789062 14.765625 -13.3125 C 14.398438 -10.832031 13.9375 -8.144531 13.375 -5.25 C 12.8125 -2.351562 12.109375 0.503906 11.265625 3.328125 C 10.429688 6.148438 9.382812 8.640625 8.125 10.796875 C 6.875 12.960938 5.378906 14.550781 3.640625 15.5625 C 3.253906 15.707031 2.851562 15.882812 2.4375 16.09375 C 2.03125 16.3125 1.632812 16.46875 1.25 16.5625 Z M 1.25 16.5625 "/></g></g></g><g clip-path="url(#43f68d187f)"><path fill="#000000" d="M 74.105469 185.199219 L 83.898438 198.035156 C 83.898438 198.035156 92.820312 178.332031 114.128906 171.554688 C 114.128906 171.554688 95.085938 175.410156 83.359375 190.496094 L 79.21875 185.097656 L 77.707031 183.160156 L 79.234375 180.746094 C 75.53125 180.539062 71.8125 180.671875 69.007812 176.789062 C 66.203125 172.90625 69.953125 162.363281 77.871094 159.785156 C 78.214844 159.664062 78.574219 159.574219 78.921875 159.484375 C 78.5 162.960938 78.019531 167.507812 77.839844 167.972656 C 81.527344 159.019531 97.335938 126.222656 108.027344 149.738281 C 108.027344 149.738281 108.222656 148.882812 108.386719 147.578125 C 118.914062 140.769531 121.65625 148.777344 121.792969 155.734375 C 103.078125 153.964844 89.882812 172.996094 88.066406 175.769531 L 88.050781 175.785156 L 88.007812 175.84375 C 87.902344 176.007812 87.84375 176.097656 87.84375 176.097656 L 88.96875 175.019531 C 101.234375 163.414062 113.46875 161.34375 118.734375 161.011719 L 125 169.832031 C 125 169.832031 99 175.933594 89.25 197.886719 C 89.25 197.886719 106.855469 176.773438 133.457031 173.820312 L 125 159.84375 C 129.5 140.695312 116.574219 137.320312 109.089844 140.933594 C 108.761719 141.085938 108.476562 141.175781 108.25 141.234375 C 107.5625 137.785156 105.523438 134.605469 100.394531 134.589844 C 99.554688 134.589844 98.640625 134.667969 97.621094 134.847656 C 85.324219 137.035156 81.453125 149.105469 79.476562 155.554688 C 79.460938 155.601562 79.445312 155.675781 79.429688 155.75 C 78.859375 155.824219 78.410156 155.898438 78.171875 155.929688 C 76.894531 156.09375 75.636719 156.378906 74.375 156.785156 C 64.792969 159.902344 61.40625 170.984375 63.667969 177.359375 C 65.648438 182.953125 69.308594 184.167969 74.078125 185.1875 Z M 74.105469 185.199219 " fill-opacity="1" fill-rule="evenodd"/></g><g transform="matrix(1, 0, 0, 1, 243, 210)"><g clip-path="url(#436abaf603)"><g fill="#ff5757" fill-opacity="1"><g transform="translate(1.69748, 39.575609)"><g><path d="M 20.5 -1.65625 C 20.5 -1.65625 20.472656 -1.515625 20.421875 -1.234375 C 20.367188 -0.960938 20.242188 -0.6875 20.046875 -0.40625 C 19.859375 -0.132812 19.554688 0 19.140625 0 C 18.640625 0 18.191406 -0.0195312 17.796875 -0.0625 C 17.398438 -0.101562 16.953125 -0.125 16.453125 -0.125 C 16.046875 -0.125 15.675781 -0.109375 15.34375 -0.078125 C 15.007812 -0.0546875 14.640625 -0.046875 14.234375 -0.046875 C 13.734375 -0.046875 13.394531 -0.140625 13.21875 -0.328125 C 13.039062 -0.523438 12.941406 -0.742188 12.921875 -0.984375 C 12.910156 -1.234375 12.894531 -1.425781 12.875 -1.5625 C 12.875 -1.707031 12.851562 -2 12.8125 -2.4375 C 12.769531 -2.875 12.71875 -3.316406 12.65625 -3.765625 C 12.601562 -4.222656 12.507812 -4.507812 12.375 -4.625 C 12.257812 -4.726562 12.207031 -4.773438 12.21875 -4.765625 C 12.238281 -4.753906 12.179688 -4.789062 12.046875 -4.875 C 12.015625 -4.894531 11.6875 -4.910156 11.0625 -4.921875 C 10.445312 -4.941406 9.910156 -4.953125 9.453125 -4.953125 C 8.679688 -4.953125 8.238281 -4.847656 8.125 -4.640625 C 8.019531 -4.429688 7.925781 -4.09375 7.84375 -3.625 C 7.84375 -3.519531 7.828125 -3.238281 7.796875 -2.78125 C 7.765625 -2.332031 7.722656 -1.882812 7.671875 -1.4375 C 7.617188 -1 7.550781 -0.710938 7.46875 -0.578125 C 7.332031 -0.378906 7.179688 -0.238281 7.015625 -0.15625 C 6.847656 -0.0820312 6.597656 -0.046875 6.265625 -0.046875 C 5.878906 -0.046875 5.53125 -0.0507812 5.21875 -0.0625 C 4.90625 -0.0703125 4.554688 -0.078125 4.171875 -0.078125 C 3.753906 -0.078125 3.335938 -0.0703125 2.921875 -0.0625 C 2.515625 -0.0507812 2.101562 -0.046875 1.6875 -0.046875 C 1.332031 -0.046875 0.984375 -0.101562 0.640625 -0.21875 C 0.296875 -0.34375 0.125 -0.679688 0.125 -1.234375 C 0.125 -1.398438 0.15625 -1.660156 0.21875 -2.015625 C 0.289062 -2.378906 0.367188 -2.78125 0.453125 -3.21875 C 0.535156 -3.769531 0.597656 -4.25 0.640625 -4.65625 C 0.679688 -5.070312 0.753906 -5.539062 0.859375 -6.0625 C 0.941406 -6.53125 1.023438 -6.957031 1.109375 -7.34375 C 1.191406 -7.726562 1.273438 -8.15625 1.359375 -8.625 C 1.492188 -9.3125 1.585938 -9.921875 1.640625 -10.453125 C 1.703125 -10.992188 1.785156 -11.609375 1.890625 -12.296875 C 2.003906 -12.984375 2.113281 -13.585938 2.21875 -14.109375 C 2.332031 -14.628906 2.429688 -15.234375 2.515625 -15.921875 C 2.566406 -16.390625 2.613281 -16.820312 2.65625 -17.21875 C 2.695312 -17.613281 2.757812 -18.0625 2.84375 -18.5625 C 2.957031 -19.113281 3.066406 -19.625 3.171875 -20.09375 C 3.285156 -20.5625 3.394531 -21.066406 3.5 -21.609375 C 3.664062 -22.492188 3.78125 -23.28125 3.84375 -23.96875 C 3.914062 -24.65625 4.050781 -25.425781 4.25 -26.28125 C 4.382812 -26.820312 4.523438 -27.328125 4.671875 -27.796875 C 4.828125 -28.265625 5.003906 -28.597656 5.203125 -28.796875 C 5.585938 -29.097656 6.191406 -29.25 7.015625 -29.25 C 7.722656 -29.25 8.359375 -29.21875 8.921875 -29.15625 C 9.492188 -29.101562 10.125 -29.078125 10.8125 -29.078125 C 11.332031 -29.078125 11.851562 -29.082031 12.375 -29.09375 C 12.894531 -29.113281 13.414062 -29.125 13.9375 -29.125 L 14.109375 -29.125 C 14.660156 -29.125 15.050781 -29.066406 15.28125 -28.953125 C 15.519531 -28.847656 15.734375 -28.613281 15.921875 -28.25 C 15.972656 -28.226562 16.015625 -28.15625 16.046875 -28.03125 C 16.078125 -27.90625 16.101562 -27.816406 16.125 -27.765625 C 16.125 -27.765625 16.15625 -27.5625 16.21875 -27.15625 C 16.289062 -26.757812 16.382812 -26.3125 16.5 -25.8125 C 16.613281 -25.320312 16.703125 -24.878906 16.765625 -24.484375 C 16.835938 -24.085938 16.875 -23.890625 16.875 -23.890625 C 16.976562 -23.222656 17.054688 -22.617188 17.109375 -22.078125 C 17.171875 -21.546875 17.253906 -20.953125 17.359375 -20.296875 C 17.503906 -19.492188 17.632812 -18.769531 17.75 -18.125 C 17.875 -17.476562 18.019531 -16.757812 18.1875 -15.96875 C 18.320312 -15.332031 18.445312 -14.742188 18.5625 -14.203125 C 18.675781 -13.671875 18.769531 -13.085938 18.84375 -12.453125 C 18.988281 -11.597656 19.082031 -10.832031 19.125 -10.15625 C 19.164062 -9.488281 19.238281 -8.726562 19.34375 -7.875 C 19.476562 -7.050781 19.632812 -6.191406 19.8125 -5.296875 C 20 -4.398438 20.160156 -3.613281 20.296875 -2.9375 C 20.429688 -2.269531 20.5 -1.84375 20.5 -1.65625 Z M 11.625 -13.453125 C 11.625 -14.191406 11.578125 -14.925781 11.484375 -15.65625 C 11.390625 -16.382812 11.296875 -17.019531 11.203125 -17.5625 C 11.109375 -18.113281 11.046875 -18.488281 11.015625 -18.6875 C 10.984375 -19.019531 10.945312 -19.363281 10.90625 -19.71875 C 10.863281 -20.070312 10.816406 -20.28125 10.765625 -20.34375 C 10.679688 -20.644531 10.546875 -20.796875 10.359375 -20.796875 C 10.191406 -20.796875 10.082031 -20.65625 10.03125 -20.375 C 10 -20.320312 9.953125 -20.164062 9.890625 -19.90625 C 9.835938 -19.644531 9.789062 -19.390625 9.75 -19.140625 C 9.707031 -18.890625 9.675781 -18.722656 9.65625 -18.640625 C 9.59375 -18.398438 9.535156 -18.175781 9.484375 -17.96875 C 9.429688 -17.757812 9.378906 -17.53125 9.328125 -17.28125 C 9.328125 -17.195312 9.296875 -16.960938 9.234375 -16.578125 C 9.179688 -16.191406 9.117188 -15.765625 9.046875 -15.296875 C 8.984375 -14.835938 8.921875 -14.421875 8.859375 -14.046875 C 8.804688 -13.671875 8.78125 -13.441406 8.78125 -13.359375 C 8.78125 -12.734375 8.910156 -12.34375 9.171875 -12.1875 C 9.429688 -12.039062 9.726562 -11.96875 10.0625 -11.96875 C 10.34375 -11.96875 10.671875 -12.023438 11.046875 -12.140625 C 11.429688 -12.265625 11.625 -12.703125 11.625 -13.453125 Z M 11.625 -13.453125 "/></g></g></g><g fill="#ff5757" fill-opacity="1"><g transform="translate(22.320906, 39.575609)"><g><path d="M 9.109375 -1.359375 C 9.109375 -1.109375 9.046875 -0.832031 8.921875 -0.53125 C 8.804688 -0.226562 8.445312 -0.078125 7.84375 -0.078125 C 7.539062 -0.078125 7.253906 -0.09375 6.984375 -0.125 C 6.722656 -0.15625 6.441406 -0.171875 6.140625 -0.171875 C 5.617188 -0.171875 5.160156 -0.148438 4.765625 -0.109375 C 4.367188 -0.0664062 3.921875 -0.046875 3.421875 -0.046875 C 2.734375 -0.046875 2.257812 -0.132812 2 -0.3125 C 1.738281 -0.488281 1.585938 -0.71875 1.546875 -1 C 1.503906 -1.289062 1.484375 -1.601562 1.484375 -1.9375 L 1.484375 -3.625 C 1.484375 -4.09375 1.503906 -4.523438 1.546875 -4.921875 C 1.585938 -5.328125 1.609375 -5.765625 1.609375 -6.234375 L 1.609375 -7.921875 C 1.609375 -8.960938 1.585938 -9.898438 1.546875 -10.734375 C 1.503906 -11.578125 1.484375 -12.507812 1.484375 -13.53125 L 1.484375 -18.640625 C 1.484375 -19.460938 1.503906 -20.195312 1.546875 -20.84375 C 1.585938 -21.5 1.609375 -22.222656 1.609375 -23.015625 L 1.609375 -25.859375 C 1.609375 -26.222656 1.585938 -26.539062 1.546875 -26.8125 C 1.503906 -27.082031 1.484375 -27.398438 1.484375 -27.765625 C 1.484375 -28.453125 1.675781 -28.851562 2.0625 -28.96875 C 2.445312 -29.09375 2.875 -29.15625 3.34375 -29.15625 C 3.8125 -29.15625 4.242188 -29.148438 4.640625 -29.140625 C 5.035156 -29.128906 5.46875 -29.125 5.9375 -29.125 C 6.320312 -29.125 6.675781 -29.132812 7 -29.15625 C 7.332031 -29.1875 7.707031 -29.203125 8.125 -29.203125 C 8.5625 -29.203125 8.832031 -29.007812 8.9375 -28.625 C 9.050781 -28.238281 9.109375 -27.921875 9.109375 -27.671875 C 9.109375 -27.347656 9.09375 -27.054688 9.0625 -26.796875 C 9.039062 -26.535156 9.019531 -26.238281 9 -25.90625 C 8.96875 -25.382812 8.957031 -24.921875 8.96875 -24.515625 C 8.988281 -24.117188 9 -23.660156 9 -23.140625 L 9 -16.75 C 9 -16.28125 8.984375 -15.851562 8.953125 -15.46875 C 8.921875 -15.082031 8.90625 -14.65625 8.90625 -14.1875 L 8.90625 -12.171875 C 8.90625 -11.347656 8.929688 -10.613281 8.984375 -9.96875 C 9.046875 -9.320312 9.078125 -8.582031 9.078125 -7.75 C 9.078125 -7.144531 9.054688 -6.59375 9.015625 -6.09375 C 8.972656 -5.601562 8.953125 -5.054688 8.953125 -4.453125 C 8.953125 -3.878906 8.976562 -3.363281 9.03125 -2.90625 C 9.082031 -2.457031 9.109375 -1.941406 9.109375 -1.359375 Z M 9.109375 -1.359375 "/></g></g></g></g></g></svg>