<svg xmlns="http://www.w3.org/2000/svg" xmlns:xlink="http://www.w3.org/1999/xlink" width="500" zoomAndPan="magnify" viewBox="0 0 375 374.999991" height="500" preserveAspectRatio="xMidYMid meet" version="1.0"><defs><g/><clipPath id="ac7701e4f1"><path d="M 85 107 L 269 107 L 269 164 L 85 164 Z M 85 107 " clip-rule="nonzero"/></clipPath><clipPath id="ca862dd879"><path d="M 96.628906 81.757812 L 268.933594 107.488281 L 256.914062 187.957031 L 84.613281 162.226562 Z M 96.628906 81.757812 " clip-rule="nonzero"/></clipPath><clipPath id="4ac23fd5b2"><path d="M 96.628906 81.757812 L 268.933594 107.488281 L 256.914062 187.957031 L 84.613281 162.226562 Z M 96.628906 81.757812 " clip-rule="nonzero"/></clipPath><clipPath id="cde236192b"><path d="M 2 7.648438 L 92.855469 7.648438 L 92.855469 89 L 2 89 Z M 2 7.648438 " clip-rule="nonzero"/></clipPath><clipPath id="538c82344c"><rect x="0" width="291" y="0" height="189"/></clipPath></defs><rect x="-37.5" width="450" fill="#ffffff" y="-37.499999" height="449.999989" fill-opacity="1"/><rect x="-37.5" width="450" fill="#f8f8f8" y="-37.499999" height="449.999989" fill-opacity="1"/><g transform="matrix(1, 0, 0, 1, 42, 102)"><g clip-path="url(#538c82344c)"><g clip-path="url(#ac7701e4f1)"><g clip-path="url(#ca862dd879)"><g clip-path="url(#4ac23fd5b2)"><path fill="#000000" d="M 85.707031 158.128906 C 89.320312 153.550781 231.566406 98.449219 268.480469 108.28125 C 230.554688 111.148438 135.761719 143.863281 105.953125 159.972656 C 108 160.089844 110.738281 159.949219 114.503906 159.394531 C 113.375 161.332031 102.867188 162.859375 98.226562 163.03125 C 90.761719 163.515625 82.511719 162.179688 85.707031 158.148438 Z M 85.707031 158.128906 " fill-opacity="1" fill-rule="nonzero"/></g></g></g><g fill="#000000" fill-opacity="1"><g transform="translate(55.017168, 133.711816)"><g><path d="M 38.6875 -47.1875 C 37.789062 -45.03125 36.445312 -42.789062 34.65625 -40.46875 C 32.863281 -38.144531 30.882812 -35.90625 28.71875 -33.75 C 26.5625 -31.601562 24.429688 -29.644531 22.328125 -27.875 L 23.078125 -28.046875 C 26.453125 -28.859375 29.410156 -28.988281 31.953125 -28.4375 C 34.503906 -27.894531 36.390625 -26.710938 37.609375 -24.890625 C 38.828125 -23.066406 39.023438 -20.609375 38.203125 -17.515625 C 37.453125 -15.023438 36.078125 -12.5 34.078125 -9.9375 C 32.085938 -7.382812 29.722656 -4.992188 26.984375 -2.765625 C 24.242188 -0.546875 21.410156 1.351562 18.484375 2.9375 C 15.554688 4.53125 12.863281 5.625 10.40625 6.21875 C 8.582031 6.65625 6.96875 6.738281 5.5625 6.46875 C 4.164062 6.207031 3.113281 5.53125 2.40625 4.4375 C 2.15625 4.0625 2.207031 3.832031 2.5625 3.75 C 2.9375 3.726562 3.351562 3.679688 3.8125 3.609375 C 4.28125 3.535156 4.757812 3.4375 5.25 3.3125 C 7.425781 2.789062 9.847656 1.800781 12.515625 0.34375 C 15.179688 -1.101562 17.863281 -2.851562 20.5625 -4.90625 C 23.269531 -6.96875 25.71875 -9.097656 27.90625 -11.296875 C 30.101562 -13.492188 31.816406 -15.597656 33.046875 -17.609375 C 34.273438 -19.617188 34.753906 -21.347656 34.484375 -22.796875 C 34.210938 -24.253906 32.90625 -25.191406 30.5625 -25.609375 C 29.550781 -25.816406 28.460938 -25.875 27.296875 -25.78125 C 26.128906 -25.6875 24.910156 -25.488281 23.640625 -25.1875 C 21.953125 -24.78125 20.234375 -24.195312 18.484375 -23.4375 C 16.734375 -22.6875 15.082031 -21.828125 13.53125 -20.859375 C 12.570312 -17.722656 11.738281 -14.585938 11.03125 -11.453125 C 10.332031 -8.316406 9.835938 -5.179688 9.546875 -2.046875 C 7.660156 -1.828125 6.460938 -2.472656 5.953125 -3.984375 C 5.453125 -5.492188 5.367188 -7.476562 5.703125 -9.9375 C 6.046875 -12.40625 6.601562 -14.976562 7.375 -17.65625 C 8.15625 -20.332031 8.914062 -22.742188 9.65625 -24.890625 C 10.40625 -27.046875 10.921875 -28.488281 11.203125 -29.21875 C 12.523438 -32.96875 13.914062 -36.535156 15.375 -39.921875 C 16.84375 -43.316406 18.171875 -46.3125 19.359375 -48.90625 C 20.554688 -51.507812 21.425781 -53.394531 21.96875 -54.5625 C 23.738281 -54.019531 24.898438 -53.515625 25.453125 -53.046875 C 26.015625 -52.578125 25.898438 -51.507812 25.109375 -49.84375 C 23.671875 -46.53125 22.191406 -43.148438 20.671875 -39.703125 C 19.148438 -36.253906 17.707031 -32.726562 16.34375 -29.125 C 18.207031 -30.601562 20.238281 -32.441406 22.4375 -34.640625 C 24.632812 -36.847656 26.734375 -39.191406 28.734375 -41.671875 C 30.734375 -44.160156 32.367188 -46.5625 33.640625 -48.875 C 34.910156 -51.1875 35.578125 -53.222656 35.640625 -54.984375 C 35.703125 -56.742188 34.90625 -57.984375 33.25 -58.703125 C 31.882812 -59.421875 30.296875 -59.769531 28.484375 -59.75 C 26.671875 -59.726562 24.632812 -59.445312 22.375 -58.90625 C 19 -58.101562 15.441406 -56.804688 11.703125 -55.015625 C 7.960938 -53.222656 4.40625 -51.140625 1.03125 -48.765625 C -2.332031 -46.398438 -5.207031 -43.925781 -7.59375 -41.34375 C -9.988281 -38.757812 -11.601562 -36.253906 -12.4375 -33.828125 C -13.28125 -31.398438 -12.960938 -29.285156 -11.484375 -27.484375 C -10.753906 -26.609375 -9.914062 -26.0625 -8.96875 -25.84375 C -8.03125 -25.625 -7.191406 -25.546875 -6.453125 -25.609375 C -5.722656 -25.671875 -5.347656 -25.664062 -5.328125 -25.59375 C -5.191406 -25.550781 -5.296875 -25.398438 -5.640625 -25.140625 C -5.984375 -24.878906 -6.46875 -24.671875 -7.09375 -24.515625 C -7.945312 -24.316406 -9.019531 -24.285156 -10.3125 -24.421875 C -11.601562 -24.554688 -12.816406 -25.0625 -13.953125 -25.9375 C -15.085938 -26.820312 -15.972656 -28.265625 -16.609375 -30.265625 C -17.097656 -32.304688 -16.992188 -34.429688 -16.296875 -36.640625 C -15.597656 -38.859375 -14.609375 -40.867188 -13.328125 -42.671875 C -10.703125 -46.265625 -7.628906 -49.425781 -4.109375 -52.15625 C -0.597656 -54.894531 3.070312 -57.1875 6.90625 -59.03125 C 10.738281 -60.882812 14.484375 -62.25 18.140625 -63.125 C 21.796875 -64 25.226562 -64.335938 28.4375 -64.140625 C 31.644531 -63.941406 34.234375 -63.144531 36.203125 -61.75 C 37.984375 -60.539062 39.179688 -58.648438 39.796875 -56.078125 C 40.410156 -53.515625 40.039062 -50.550781 38.6875 -47.1875 Z M 38.6875 -47.1875 "/></g></g></g><g fill="#000000" fill-opacity="1"><g transform="translate(98.378659, 123.337064)"><g><path d="M 9.53125 -53.9375 C 10.300781 -54.125 11.097656 -54.035156 11.921875 -53.671875 C 12.753906 -53.304688 13.351562 -52.832031 13.71875 -52.25 C 13.914062 -52 13.960938 -51.710938 13.859375 -51.390625 C 13.753906 -51.078125 13.65625 -50.796875 13.5625 -50.546875 C 12.53125 -47.992188 11.539062 -45.429688 10.59375 -42.859375 C 9.65625 -40.285156 8.6875 -37.691406 7.6875 -35.078125 C 7.488281 -34.578125 7.359375 -34.320312 7.296875 -34.3125 C 7.148438 -34.269531 6.929688 -34.554688 6.640625 -35.171875 C 6.109375 -36.753906 5.894531 -38.632812 6 -40.8125 C 6.113281 -42.988281 6.414062 -45.160156 6.90625 -47.328125 C 7.394531 -49.492188 7.945312 -51.316406 8.5625 -52.796875 C 8.914062 -53.484375 9.238281 -53.863281 9.53125 -53.9375 Z M 16.078125 -26.59375 C 16.554688 -26.707031 16.992188 -26.40625 17.390625 -25.6875 C 17.054688 -24.863281 16.710938 -24.019531 16.359375 -23.15625 C 16.015625 -22.289062 15.726562 -21.421875 15.5 -20.546875 C 15.0625 -19.554688 14.410156 -18.140625 13.546875 -16.296875 C 12.691406 -14.460938 11.703125 -12.550781 10.578125 -10.5625 C 9.460938 -8.582031 8.300781 -6.851562 7.09375 -5.375 C 5.882812 -3.894531 4.753906 -3.03125 3.703125 -2.78125 C 2.222656 -2.425781 0.789062 -2.882812 -0.59375 -4.15625 C -1.976562 -5.425781 -2.539062 -7.054688 -2.28125 -9.046875 C -2.175781 -9.585938 -1.988281 -10.6875 -1.71875 -12.34375 C -1.457031 -14.007812 -1.117188 -15.914062 -0.703125 -18.0625 C -0.296875 -20.21875 0.128906 -22.3125 0.578125 -24.34375 C 1.023438 -26.382812 1.476562 -28.085938 1.9375 -29.453125 C 2.394531 -30.828125 2.800781 -31.554688 3.15625 -31.640625 C 3.28125 -31.671875 3.472656 -31.679688 3.734375 -31.671875 C 4.003906 -31.671875 4.296875 -31.628906 4.609375 -31.546875 C 5.460938 -31.390625 6.351562 -31.082031 7.28125 -30.625 C 8.207031 -30.175781 8.507812 -29.359375 8.1875 -28.171875 L 8.15625 -27.953125 C 7.332031 -25.742188 6.566406 -23.398438 5.859375 -20.921875 C 5.148438 -18.453125 4.523438 -16.035156 3.984375 -13.671875 C 3.898438 -13.359375 3.734375 -12.554688 3.484375 -11.265625 C 3.242188 -9.972656 3.097656 -8.722656 3.046875 -7.515625 C 3.003906 -6.316406 3.222656 -5.632812 3.703125 -5.46875 C 3.785156 -5.40625 3.863281 -5.382812 3.9375 -5.40625 C 4.21875 -5.46875 4.664062 -5.796875 5.28125 -6.390625 C 7.625 -9.335938 9.609375 -12.53125 11.234375 -15.96875 C 12.859375 -19.40625 14.414062 -22.863281 15.90625 -26.34375 C 15.945312 -26.488281 15.984375 -26.566406 16.015625 -26.578125 C 16.054688 -26.585938 16.078125 -26.59375 16.078125 -26.59375 Z M 16.078125 -26.59375 "/></g></g></g><g fill="#000000" fill-opacity="1"><g transform="translate(112.199472, 120.03027)"><g><path d="M -11.65625 -34.8125 C -12.15625 -34.6875 -12.535156 -35.003906 -12.796875 -35.765625 C -13.054688 -36.523438 -12.90625 -37 -12.34375 -37.1875 L 4.671875 -43.84375 C 5.460938 -46.78125 6.226562 -49.25 6.96875 -51.25 C 7.71875 -53.25 8.414062 -54.476562 9.0625 -54.9375 C 9.757812 -55.394531 10.425781 -55.703125 11.0625 -55.859375 C 12.601562 -56.222656 13.84375 -55.992188 14.78125 -55.171875 C 15.726562 -54.359375 15.992188 -53.609375 15.578125 -52.921875 C 14.628906 -51.578125 13.71875 -49.613281 12.84375 -47.03125 C 14.90625 -47.726562 16.941406 -48.46875 18.953125 -49.25 C 20.960938 -50.039062 22.914062 -50.8125 24.8125 -51.5625 C 25.5625 -51.820312 26.050781 -51.546875 26.28125 -50.734375 C 26.507812 -49.929688 26.457031 -49.0625 26.125 -48.125 C 25.789062 -47.195312 25.148438 -46.546875 24.203125 -46.171875 C 22.066406 -45.492188 19.90625 -44.820312 17.71875 -44.15625 C 15.53125 -43.5 13.328125 -42.832031 11.109375 -42.15625 C 9.972656 -38.519531 8.851562 -34.488281 7.75 -30.0625 C 6.65625 -25.644531 5.6875 -21.140625 4.84375 -16.546875 C 4.007812 -11.960938 3.390625 -7.632812 2.984375 -3.5625 C 2.585938 0.507812 2.535156 3.921875 2.828125 6.671875 C 1.535156 6.910156 0.578125 6.488281 -0.046875 5.40625 C -0.671875 4.332031 -1.082031 3.0625 -1.28125 1.59375 C -1.488281 0.125 -1.578125 -1.023438 -1.546875 -1.859375 C -1.566406 -3.773438 -1.425781 -6.21875 -1.125 -9.1875 C -0.832031 -12.164062 -0.441406 -15.425781 0.046875 -18.96875 C 0.535156 -22.507812 1.109375 -26.082031 1.765625 -29.6875 C 2.421875 -33.300781 3.109375 -36.722656 3.828125 -39.953125 C 1.253906 -39.191406 -1.300781 -38.375 -3.84375 -37.5 C -6.394531 -36.632812 -8.929688 -35.753906 -11.453125 -34.859375 Z M -11.65625 -34.8125 "/></g></g></g><g fill="#000000" fill-opacity="1"><g transform="translate(123.488226, 117.329302)"><g><path d="M 6.90625 -1.421875 C 4.726562 -0.898438 2.929688 -1.253906 1.515625 -2.484375 C -0.472656 -4.003906 -1.734375 -5.945312 -2.265625 -8.3125 C -2.804688 -10.6875 -2.828125 -13.175781 -2.328125 -15.78125 C -1.835938 -18.394531 -1.019531 -20.878906 0.125 -23.234375 C 1.28125 -25.597656 2.535156 -27.5 3.890625 -28.9375 C 4.910156 -29.988281 6.050781 -30.664062 7.3125 -30.96875 C 8.925781 -31.351562 10.410156 -31.039062 11.765625 -30.03125 C 13.128906 -29.019531 13.84375 -27.628906 13.90625 -25.859375 C 13.914062 -25.484375 13.898438 -25.125 13.859375 -24.78125 C 13.828125 -24.4375 13.78125 -24.113281 13.71875 -23.8125 L 13.765625 -23.59375 C 13.585938 -22.425781 13.15625 -21.039062 12.46875 -19.4375 C 11.78125 -17.832031 10.921875 -16.378906 9.890625 -15.078125 C 8.859375 -13.785156 7.753906 -12.960938 6.578125 -12.609375 C 5.160156 -12.273438 4.039062 -12.457031 3.21875 -13.15625 C 2.820312 -10.75 2.769531 -8.707031 3.0625 -7.03125 C 3.351562 -5.351562 4.285156 -4.628906 5.859375 -4.859375 C 7.765625 -5.304688 9.566406 -6.40625 11.265625 -8.15625 C 12.972656 -9.90625 14.535156 -11.929688 15.953125 -14.234375 C 17.367188 -16.546875 18.613281 -18.867188 19.6875 -21.203125 C 20.757812 -23.546875 21.648438 -25.582031 22.359375 -27.3125 C 22.335938 -27.382812 22.394531 -27.441406 22.53125 -27.484375 C 22.75 -27.535156 23 -27.5 23.28125 -27.375 C 23.570312 -27.257812 23.769531 -26.988281 23.875 -26.5625 C 23.695312 -26.070312 23.4375 -25.378906 23.09375 -24.484375 C 22.75 -23.585938 22.34375 -22.5625 21.875 -21.40625 C 21.207031 -19.832031 20.394531 -18.003906 19.4375 -15.921875 C 18.488281 -13.835938 17.40625 -11.769531 16.1875 -9.71875 C 14.96875 -7.675781 13.585938 -5.894531 12.046875 -4.375 C 10.515625 -2.863281 8.800781 -1.878906 6.90625 -1.421875 Z M 9.90625 -27.140625 C 9.269531 -26.984375 8.554688 -26.304688 7.765625 -25.109375 C 6.972656 -23.921875 6.207031 -22.457031 5.46875 -20.71875 C 4.738281 -18.976562 4.117188 -17.15625 3.609375 -15.25 C 3.929688 -14.8125 4.34375 -14.648438 4.84375 -14.765625 C 5.539062 -14.929688 6.347656 -15.570312 7.265625 -16.6875 C 8.191406 -17.800781 9.054688 -19.101562 9.859375 -20.59375 C 10.660156 -22.082031 11.144531 -23.519531 11.3125 -24.90625 C 11.3125 -25.875 11.191406 -26.550781 10.953125 -26.9375 C 10.671875 -27.164062 10.320312 -27.234375 9.90625 -27.140625 Z M 9.90625 -27.140625 "/></g></g></g><g fill="#000000" fill-opacity="1"><g transform="translate(144.272196, 112.35649)"><g><path d="M 15.203125 -38.09375 C 16.535156 -38.414062 17.882812 -38.125 19.25 -37.21875 C 20.625 -36.320312 21.6875 -35.078125 22.4375 -33.484375 C 23.207031 -31.804688 23.484375 -29.492188 23.265625 -26.546875 C 23.046875 -23.597656 22.523438 -20.492188 21.703125 -17.234375 C 20.878906 -13.984375 19.867188 -10.972656 18.671875 -8.203125 C 17.484375 -5.429688 16.273438 -3.34375 15.046875 -1.9375 C 14.148438 -0.96875 13.3125 -0.257812 12.53125 0.1875 C 11.75 0.632812 10.757812 1 9.5625 1.28125 C 7.5 1.332031 5.9375 0.78125 4.875 -0.375 C 3.820312 -1.539062 3.097656 -3.085938 2.703125 -5.015625 C 2.703125 -4.703125 2.671875 -4.441406 2.609375 -4.234375 C 2.546875 -4.035156 2.457031 -3.851562 2.34375 -3.6875 C 2.269531 -3.375 2.21875 -3.117188 2.1875 -2.921875 C 2.164062 -2.722656 2.046875 -2.640625 1.828125 -2.671875 C 0.640625 -2.972656 -0.203125 -3.695312 -0.703125 -4.84375 C -1.203125 -5.988281 -1.535156 -7.066406 -1.703125 -8.078125 C -1.816406 -10.117188 -1.644531 -12.738281 -1.1875 -15.9375 C -0.726562 -19.132812 -0.0976562 -22.554688 0.703125 -26.203125 C 1.503906 -29.859375 2.390625 -33.457031 3.359375 -37 C 4.328125 -40.539062 5.238281 -43.710938 6.09375 -46.515625 C 6.957031 -49.328125 7.679688 -51.515625 8.265625 -53.078125 C 8.648438 -53.984375 9.03125 -54.722656 9.40625 -55.296875 C 9.789062 -55.867188 10.441406 -56.265625 11.359375 -56.484375 C 12.410156 -56.734375 13.367188 -56.679688 14.234375 -56.328125 C 15.109375 -55.972656 15.773438 -55.535156 16.234375 -55.015625 C 16.691406 -54.492188 16.773438 -54.054688 16.484375 -53.703125 C 15.640625 -52.597656 14.671875 -50.742188 13.578125 -48.140625 C 12.492188 -45.535156 11.34375 -42.507812 10.125 -39.0625 C 8.90625 -35.613281 7.765625 -31.976562 6.703125 -28.15625 C 5.648438 -24.332031 4.734375 -20.617188 3.953125 -17.015625 C 4.847656 -19.828125 5.828125 -22.660156 6.890625 -25.515625 C 7.953125 -28.378906 9.070312 -30.914062 10.25 -33.125 C 11.4375 -35.34375 12.644531 -36.820312 13.875 -37.5625 C 14.070312 -37.675781 14.269531 -37.773438 14.46875 -37.859375 C 14.675781 -37.953125 14.921875 -38.03125 15.203125 -38.09375 Z M 4.875 -11.328125 C 4.820312 -10.628906 4.757812 -9.660156 4.6875 -8.421875 C 4.613281 -7.179688 4.65625 -5.984375 4.8125 -4.828125 C 4.976562 -3.679688 5.3125 -2.832031 5.8125 -2.28125 C 6.34375 -1.894531 6.785156 -1.742188 7.140625 -1.828125 C 7.910156 -2.015625 8.671875 -2.734375 9.421875 -3.984375 C 10.171875 -5.234375 10.851562 -6.65625 11.46875 -8.25 C 12.082031 -9.851562 12.597656 -11.335938 13.015625 -12.703125 C 13.441406 -14.066406 13.710938 -14.953125 13.828125 -15.359375 C 14.078125 -16.222656 14.421875 -17.523438 14.859375 -19.265625 C 15.296875 -21.015625 15.710938 -22.921875 16.109375 -24.984375 C 16.503906 -27.054688 16.753906 -28.941406 16.859375 -30.640625 C 16.972656 -32.335938 16.863281 -33.59375 16.53125 -34.40625 C 16.21875 -35.070312 15.890625 -35.363281 15.546875 -35.28125 C 14.835938 -35.113281 14.046875 -34.273438 13.171875 -32.765625 C 12.304688 -31.265625 11.398438 -29.375 10.453125 -27.09375 C 9.515625 -24.820312 8.59375 -22.40625 7.6875 -19.84375 C 6.78125 -17.289062 5.9375 -14.84375 5.15625 -12.5 C 5.113281 -12.332031 5.070312 -12.171875 5.03125 -12.015625 C 5 -11.867188 4.945312 -11.640625 4.875 -11.328125 Z M 4.875 -11.328125 "/></g></g></g><g fill="#000000" fill-opacity="1"><g transform="translate(171.913822, 105.742902)"><g><path d="M 3.390625 -1.703125 C 3.097656 -1.628906 2.816406 -1.613281 2.546875 -1.65625 C 2.285156 -1.707031 2.003906 -1.738281 1.703125 -1.75 C 0.210938 -2.0625 -0.828125 -3.070312 -1.421875 -4.78125 C -2.023438 -6.5 -2.253906 -8.617188 -2.109375 -11.140625 C -1.972656 -13.671875 -1.632812 -16.300781 -1.09375 -19.03125 C -0.5625 -21.757812 0.0820312 -24.332031 0.84375 -26.75 C 1.601562 -29.164062 2.335938 -31.09375 3.046875 -32.53125 C 3.398438 -33.5 4.035156 -34.09375 4.953125 -34.3125 C 5.796875 -34.507812 6.648438 -34.335938 7.515625 -33.796875 C 8.390625 -33.265625 9.003906 -32.5625 9.359375 -31.6875 C 8.992188 -31.070312 8.476562 -29.882812 7.8125 -28.125 C 7.15625 -26.375 6.507812 -24.34375 5.875 -22.03125 C 5.238281 -19.726562 4.691406 -17.441406 4.234375 -15.171875 C 3.773438 -12.898438 3.503906 -10.992188 3.421875 -9.453125 C 3.335938 -7.921875 3.550781 -7.023438 4.0625 -6.765625 C 4.414062 -6.859375 4.921875 -7.46875 5.578125 -8.59375 C 6.242188 -9.71875 6.976562 -11.15625 7.78125 -12.90625 C 8.59375 -14.65625 9.40625 -16.484375 10.21875 -18.390625 C 11.03125 -20.296875 11.765625 -22.035156 12.421875 -23.609375 C 12.554688 -24.304688 12.757812 -25.171875 13.03125 -26.203125 C 13.3125 -27.234375 13.71875 -28.179688 14.25 -29.046875 C 14.78125 -29.921875 15.429688 -30.453125 16.203125 -30.640625 C 17.109375 -30.859375 18.09375 -30.851562 19.15625 -30.625 C 20.21875 -30.40625 20.59375 -29.847656 20.28125 -28.953125 C 20.15625 -28.546875 19.929688 -27.613281 19.609375 -26.15625 C 19.296875 -24.707031 18.992188 -23.109375 18.703125 -21.359375 C 18.410156 -19.617188 18.242188 -18.082031 18.203125 -16.75 C 18.265625 -14.894531 18.453125 -13.78125 18.765625 -13.40625 C 18.960938 -13.238281 19.164062 -13.175781 19.375 -13.21875 C 19.9375 -13.351562 20.582031 -13.972656 21.3125 -15.078125 C 22.050781 -16.191406 22.828125 -17.535156 23.640625 -19.109375 C 24.460938 -20.679688 25.222656 -22.253906 25.921875 -23.828125 C 26.617188 -25.398438 27.203125 -26.765625 27.671875 -27.921875 C 28.140625 -29.078125 28.394531 -29.734375 28.4375 -29.890625 C 28.4375 -29.890625 28.445312 -29.910156 28.46875 -29.953125 C 28.5 -29.992188 28.550781 -30.023438 28.625 -30.046875 C 29.175781 -30.171875 29.660156 -29.84375 30.078125 -29.0625 C 29.753906 -28.238281 29.195312 -26.757812 28.40625 -24.625 C 27.613281 -22.5 26.675781 -20.269531 25.59375 -17.9375 C 24.519531 -15.601562 23.328125 -13.519531 22.015625 -11.6875 C 20.710938 -9.851562 19.359375 -8.765625 17.953125 -8.421875 C 17.242188 -8.253906 16.382812 -8.421875 15.375 -8.921875 C 14.226562 -9.691406 13.429688 -10.859375 12.984375 -12.421875 C 12.535156 -13.984375 12.253906 -15.457031 12.140625 -16.84375 L 12.09375 -17.515625 C 11.894531 -16.796875 11.46875 -15.628906 10.8125 -14.015625 C 10.15625 -12.410156 9.394531 -10.6875 8.53125 -8.84375 C 7.675781 -7.007812 6.796875 -5.40625 5.890625 -4.03125 C 4.984375 -2.664062 4.148438 -1.890625 3.390625 -1.703125 Z M 3.390625 -1.703125 "/></g></g></g><g fill="#000000" fill-opacity="1"><g transform="translate(198.711438, 99.331254)"><g><path d="M 21.546875 -56.8125 C 22.953125 -57.144531 24.21875 -56.960938 25.34375 -56.265625 C 26.476562 -55.566406 26.863281 -54.910156 26.5 -54.296875 C 25.90625 -53.335938 25.222656 -51.519531 24.453125 -48.84375 C 23.679688 -46.175781 22.898438 -43.070312 22.109375 -39.53125 C 21.316406 -36 20.582031 -32.382812 19.90625 -28.6875 C 19.226562 -24.988281 18.691406 -21.550781 18.296875 -18.375 C 17.898438 -15.195312 17.707031 -12.660156 17.71875 -10.765625 C 17.726562 -8.867188 18.019531 -7.988281 18.59375 -8.125 C 19.007812 -8.226562 19.625 -8.972656 20.4375 -10.359375 C 21.257812 -11.742188 22.148438 -13.441406 23.109375 -15.453125 C 24.078125 -17.472656 25.019531 -19.519531 25.9375 -21.59375 C 26.863281 -23.675781 27.640625 -25.5 28.265625 -27.0625 C 28.890625 -28.632812 29.257812 -29.65625 29.375 -30.125 C 29.425781 -30.195312 29.523438 -30.253906 29.671875 -30.296875 C 30.234375 -30.429688 30.722656 -30.109375 31.140625 -29.328125 C 31.003906 -28.921875 30.800781 -28.347656 30.53125 -27.609375 C 30.269531 -26.867188 29.945312 -26.046875 29.5625 -25.140625 C 29.613281 -24.929688 29.585938 -24.738281 29.484375 -24.5625 C 29.035156 -23.34375 28.367188 -21.625 27.484375 -19.40625 C 26.609375 -17.1875 25.613281 -14.882812 24.5 -12.5 C 23.394531 -10.113281 22.25 -8.050781 21.0625 -6.3125 C 19.882812 -4.582031 18.769531 -3.59375 17.71875 -3.34375 C 17.582031 -3.3125 17.4375 -3.296875 17.28125 -3.296875 C 17.132812 -3.296875 16.984375 -3.3125 16.828125 -3.34375 C 16.273438 -3.445312 15.6875 -3.71875 15.0625 -4.15625 C 14.4375 -4.601562 13.875 -5.253906 13.375 -6.109375 C 12.707031 -7.648438 12.265625 -9.34375 12.046875 -11.1875 C 11.828125 -13.03125 11.832031 -15.023438 12.0625 -17.171875 C 11.75 -15.972656 11.316406 -14.507812 10.765625 -12.78125 C 10.222656 -11.050781 9.601562 -9.300781 8.90625 -7.53125 C 8.207031 -5.769531 7.523438 -4.191406 6.859375 -2.796875 C 6.191406 -1.410156 5.535156 -0.5 4.890625 -0.0625 C 4.773438 0.0390625 4.609375 0.117188 4.390625 0.171875 C 4.179688 0.222656 4.007812 0.265625 3.875 0.296875 C 2.8125 0.546875 1.832031 0.28125 0.9375 -0.5 C 0.0390625 -1.289062 -0.566406 -2.203125 -0.890625 -3.234375 C -1.609375 -5.296875 -1.921875 -7.863281 -1.828125 -10.9375 C -1.742188 -14.007812 -1.34375 -17.078125 -0.625 -20.140625 C 0.0820312 -23.210938 1.078125 -25.867188 2.359375 -28.109375 C 3.648438 -30.347656 5.175781 -31.679688 6.9375 -32.109375 C 8.332031 -32.441406 9.5625 -32.175781 10.625 -31.3125 C 11.6875 -30.457031 12.445312 -29.375 12.90625 -28.0625 C 13.664062 -32.71875 14.550781 -37.265625 15.5625 -41.703125 C 16.582031 -46.140625 17.503906 -49.910156 18.328125 -53.015625 C 18.609375 -54.035156 18.929688 -54.851562 19.296875 -55.46875 C 19.671875 -56.09375 20.421875 -56.539062 21.546875 -56.8125 Z M 9.703125 -27.53125 C 8.921875 -27.34375 8.144531 -26.359375 7.375 -24.578125 C 6.613281 -22.796875 5.96875 -20.6875 5.4375 -18.25 C 4.914062 -15.820312 4.503906 -13.441406 4.203125 -11.109375 C 3.898438 -8.773438 3.820312 -6.988281 3.96875 -5.75 C 4.125 -4.8125 4.378906 -4.382812 4.734375 -4.46875 C 5.160156 -4.570312 5.675781 -5.195312 6.28125 -6.34375 C 6.894531 -7.5 7.566406 -8.960938 8.296875 -10.734375 C 9.035156 -12.515625 9.75 -14.378906 10.4375 -16.328125 C 11.125 -18.285156 11.71875 -20.0625 12.21875 -21.65625 C 12.3125 -22.207031 12.378906 -22.617188 12.421875 -22.890625 C 12.472656 -23.160156 12.515625 -23.554688 12.546875 -24.078125 C 12.421875 -24.578125 12.109375 -25.320312 11.609375 -26.3125 C 11.109375 -27.3125 10.472656 -27.71875 9.703125 -27.53125 Z M 9.703125 -27.53125 "/></g></g></g><g fill="#000000" fill-opacity="1"><g transform="translate(226.45858, 92.692421)"><g><path d="M 21.546875 -56.8125 C 22.953125 -57.144531 24.21875 -56.960938 25.34375 -56.265625 C 26.476562 -55.566406 26.863281 -54.910156 26.5 -54.296875 C 25.90625 -53.335938 25.222656 -51.519531 24.453125 -48.84375 C 23.679688 -46.175781 22.898438 -43.070312 22.109375 -39.53125 C 21.316406 -36 20.582031 -32.382812 19.90625 -28.6875 C 19.226562 -24.988281 18.691406 -21.550781 18.296875 -18.375 C 17.898438 -15.195312 17.707031 -12.660156 17.71875 -10.765625 C 17.726562 -8.867188 18.019531 -7.988281 18.59375 -8.125 C 19.007812 -8.226562 19.625 -8.972656 20.4375 -10.359375 C 21.257812 -11.742188 22.148438 -13.441406 23.109375 -15.453125 C 24.078125 -17.472656 25.019531 -19.519531 25.9375 -21.59375 C 26.863281 -23.675781 27.640625 -25.5 28.265625 -27.0625 C 28.890625 -28.632812 29.257812 -29.65625 29.375 -30.125 C 29.425781 -30.195312 29.523438 -30.253906 29.671875 -30.296875 C 30.234375 -30.429688 30.722656 -30.109375 31.140625 -29.328125 C 31.003906 -28.921875 30.800781 -28.347656 30.53125 -27.609375 C 30.269531 -26.867188 29.945312 -26.046875 29.5625 -25.140625 C 29.613281 -24.929688 29.585938 -24.738281 29.484375 -24.5625 C 29.035156 -23.34375 28.367188 -21.625 27.484375 -19.40625 C 26.609375 -17.1875 25.613281 -14.882812 24.5 -12.5 C 23.394531 -10.113281 22.25 -8.050781 21.0625 -6.3125 C 19.882812 -4.582031 18.769531 -3.59375 17.71875 -3.34375 C 17.582031 -3.3125 17.4375 -3.296875 17.28125 -3.296875 C 17.132812 -3.296875 16.984375 -3.3125 16.828125 -3.34375 C 16.273438 -3.445312 15.6875 -3.71875 15.0625 -4.15625 C 14.4375 -4.601562 13.875 -5.253906 13.375 -6.109375 C 12.707031 -7.648438 12.265625 -9.34375 12.046875 -11.1875 C 11.828125 -13.03125 11.832031 -15.023438 12.0625 -17.171875 C 11.75 -15.972656 11.316406 -14.507812 10.765625 -12.78125 C 10.222656 -11.050781 9.601562 -9.300781 8.90625 -7.53125 C 8.207031 -5.769531 7.523438 -4.191406 6.859375 -2.796875 C 6.191406 -1.410156 5.535156 -0.5 4.890625 -0.0625 C 4.773438 0.0390625 4.609375 0.117188 4.390625 0.171875 C 4.179688 0.222656 4.007812 0.265625 3.875 0.296875 C 2.8125 0.546875 1.832031 0.28125 0.9375 -0.5 C 0.0390625 -1.289062 -0.566406 -2.203125 -0.890625 -3.234375 C -1.609375 -5.296875 -1.921875 -7.863281 -1.828125 -10.9375 C -1.742188 -14.007812 -1.34375 -17.078125 -0.625 -20.140625 C 0.0820312 -23.210938 1.078125 -25.867188 2.359375 -28.109375 C 3.648438 -30.347656 5.175781 -31.679688 6.9375 -32.109375 C 8.332031 -32.441406 9.5625 -32.175781 10.625 -31.3125 C 11.6875 -30.457031 12.445312 -29.375 12.90625 -28.0625 C 13.664062 -32.71875 14.550781 -37.265625 15.5625 -41.703125 C 16.582031 -46.140625 17.503906 -49.910156 18.328125 -53.015625 C 18.609375 -54.035156 18.929688 -54.851562 19.296875 -55.46875 C 19.671875 -56.09375 20.421875 -56.539062 21.546875 -56.8125 Z M 9.703125 -27.53125 C 8.921875 -27.34375 8.144531 -26.359375 7.375 -24.578125 C 6.613281 -22.796875 5.96875 -20.6875 5.4375 -18.25 C 4.914062 -15.820312 4.503906 -13.441406 4.203125 -11.109375 C 3.898438 -8.773438 3.820312 -6.988281 3.96875 -5.75 C 4.125 -4.8125 4.378906 -4.382812 4.734375 -4.46875 C 5.160156 -4.570312 5.675781 -5.195312 6.28125 -6.34375 C 6.894531 -7.5 7.566406 -8.960938 8.296875 -10.734375 C 9.035156 -12.515625 9.75 -14.378906 10.4375 -16.328125 C 11.125 -18.285156 11.71875 -20.0625 12.21875 -21.65625 C 12.3125 -22.207031 12.378906 -22.617188 12.421875 -22.890625 C 12.472656 -23.160156 12.515625 -23.554688 12.546875 -24.078125 C 12.421875 -24.578125 12.109375 -25.320312 11.609375 -26.3125 C 11.109375 -27.3125 10.472656 -27.71875 9.703125 -27.53125 Z M 9.703125 -27.53125 "/></g></g></g><g fill="#000000" fill-opacity="1"><g transform="translate(254.205721, 86.053588)"><g><path d="M 1.609375 21.140625 C -0.992188 21.765625 -3.132812 21.289062 -4.8125 19.71875 C -6.488281 18.144531 -7.75 16.238281 -8.59375 14 C -8.726562 13.726562 -8.835938 13.398438 -8.921875 13.015625 C -9.015625 12.628906 -8.867188 12.460938 -8.484375 12.515625 C -7.984375 12.472656 -7.570312 12.820312 -7.25 13.5625 C -6.6875 14.988281 -5.9375 16.164062 -5 17.09375 C -4.070312 18.019531 -2.726562 18.273438 -0.96875 17.859375 C 1.207031 17.335938 3.082031 15.847656 4.65625 13.390625 C 6.226562 10.929688 7.554688 7.929688 8.640625 4.390625 C 9.734375 0.859375 10.617188 -2.804688 11.296875 -6.609375 C 11.984375 -10.410156 12.546875 -13.890625 12.984375 -17.046875 C 12.679688 -16.160156 12.253906 -14.832031 11.703125 -13.0625 C 11.160156 -11.300781 10.519531 -9.472656 9.78125 -7.578125 C 9.039062 -5.691406 8.226562 -4.03125 7.34375 -2.59375 C 6.46875 -1.164062 5.492188 -0.359375 4.421875 -0.171875 C 2.859375 0.140625 1.609375 -0.1875 0.671875 -1.15625 C -0.265625 -2.125 -0.925781 -3.238281 -1.3125 -4.5 C -2 -6.78125 -2.222656 -9.523438 -1.984375 -12.734375 C -1.742188 -15.953125 -1.207031 -19.148438 -0.375 -22.328125 C 0.457031 -25.503906 1.367188 -28.140625 2.359375 -30.234375 C 2.484375 -30.640625 2.644531 -30.972656 2.84375 -31.234375 C 3.050781 -31.503906 3.328125 -31.679688 3.671875 -31.765625 C 4.453125 -31.953125 5.226562 -31.972656 6 -31.828125 C 6.769531 -31.679688 7.390625 -31.253906 7.859375 -30.546875 C 8.429688 -30.015625 8.476562 -29.351562 8 -28.5625 C 7.175781 -27.03125 6.453125 -25.164062 5.828125 -22.96875 C 5.203125 -20.78125 4.695312 -18.785156 4.3125 -16.984375 C 4.226562 -16.671875 4.046875 -15.773438 3.765625 -14.296875 C 3.492188 -12.816406 3.257812 -11.175781 3.0625 -9.375 C 2.863281 -7.582031 2.820312 -6.046875 2.9375 -4.765625 C 3.050781 -3.492188 3.425781 -2.9375 4.0625 -3.09375 C 4.6875 -3.238281 5.445312 -4.144531 6.34375 -5.8125 C 7.25 -7.488281 8.179688 -9.585938 9.140625 -12.109375 C 10.097656 -14.640625 11.015625 -17.253906 11.890625 -19.953125 C 12.773438 -22.660156 13.539062 -25.132812 14.1875 -27.375 C 14.84375 -29.613281 15.300781 -31.285156 15.5625 -32.390625 C 15.601562 -32.847656 15.800781 -33.175781 16.15625 -33.375 C 16.519531 -33.570312 16.914062 -33.71875 17.34375 -33.8125 C 18.175781 -34.019531 19.101562 -34.023438 20.125 -33.828125 C 21.144531 -33.628906 21.578125 -32.910156 21.421875 -31.671875 C 21.171875 -30.566406 20.941406 -29.414062 20.734375 -28.21875 C 20.535156 -27.019531 20.320312 -25.832031 20.09375 -24.65625 C 19.738281 -22.71875 19.320312 -20.164062 18.84375 -17 C 18.375 -13.832031 17.785156 -10.398438 17.078125 -6.703125 C 16.367188 -3.003906 15.476562 0.644531 14.40625 4.25 C 13.332031 7.851562 11.992188 11.035156 10.390625 13.796875 C 8.785156 16.566406 6.867188 18.585938 4.640625 19.859375 C 4.160156 20.046875 3.65625 20.273438 3.125 20.546875 C 2.601562 20.828125 2.097656 21.023438 1.609375 21.140625 Z M 1.609375 21.140625 "/></g></g></g><g clip-path="url(#cde236192b)"><path fill="#000000" d="M 16.378906 72.238281 L 28.878906 88.621094 C 28.878906 88.621094 40.265625 63.472656 67.460938 54.824219 C 67.460938 54.824219 43.15625 59.742188 28.1875 78.996094 L 22.90625 72.105469 L 20.972656 69.636719 L 22.925781 66.554688 C 18.199219 66.289062 13.453125 66.460938 9.875 61.503906 C 6.292969 56.546875 11.078125 43.09375 21.183594 39.800781 C 21.625 39.648438 22.082031 39.53125 22.523438 39.417969 C 21.988281 43.859375 21.375 49.65625 21.144531 50.25 C 25.855469 38.824219 46.027344 -3.03125 59.671875 26.976562 C 59.671875 26.976562 59.921875 25.886719 60.132812 24.222656 C 73.566406 15.53125 77.070312 25.753906 77.242188 34.632812 C 53.355469 32.375 36.515625 56.660156 34.199219 60.203125 L 34.179688 60.222656 L 34.121094 60.296875 C 33.988281 60.507812 33.910156 60.621094 33.910156 60.621094 L 35.347656 59.246094 C 51.003906 44.433594 66.617188 41.789062 73.335938 41.371094 L 81.335938 52.621094 C 81.335938 52.621094 48.152344 60.414062 35.710938 88.429688 C 35.710938 88.429688 58.179688 61.484375 92.128906 57.714844 L 81.335938 39.875 C 87.078125 15.4375 70.582031 11.128906 61.03125 15.742188 C 60.609375 15.933594 60.246094 16.050781 59.957031 16.125 C 59.078125 11.722656 56.476562 7.667969 49.929688 7.648438 C 48.859375 7.648438 47.691406 7.742188 46.390625 7.972656 C 30.695312 10.765625 25.757812 26.171875 23.230469 34.402344 C 23.214844 34.460938 23.195312 34.554688 23.175781 34.652344 C 22.449219 34.746094 21.875 34.84375 21.566406 34.882812 C 19.941406 35.09375 18.332031 35.457031 16.726562 35.972656 C 4.496094 39.953125 0.171875 54.097656 3.058594 62.230469 C 5.585938 69.371094 10.257812 70.917969 16.34375 72.222656 Z M 16.378906 72.238281 " fill-opacity="1" fill-rule="evenodd"/></g></g></g></svg>