<svg xmlns="http://www.w3.org/2000/svg" xmlns:xlink="http://www.w3.org/1999/xlink" width="500" zoomAndPan="magnify" viewBox="0 0 375 374.999991" height="500" preserveAspectRatio="xMidYMid meet" version="1.0"><defs><g/><clipPath id="62afc400ce"><path d="M 12.425781 12.425781 L 362.675781 12.425781 L 362.675781 362.675781 L 12.425781 362.675781 Z M 12.425781 12.425781 " clip-rule="nonzero"/></clipPath><clipPath id="0978bb0658"><rect x="0" width="248" y="0" height="373"/></clipPath></defs><rect x="-37.5" width="450" fill="#ffffff" y="-37.499999" height="449.999989" fill-opacity="1"/><rect x="-37.5" width="450" fill="#00bf63" y="-37.499999" height="449.999989" fill-opacity="1"/><g clip-path="url(#62afc400ce)"><path fill="#000000" d="M 187.550781 362.675781 C 91.015625 362.675781 12.425781 284.082031 12.425781 187.550781 C 12.425781 91.015625 91.015625 12.425781 187.550781 12.425781 C 284.082031 12.425781 362.675781 91.015625 362.675781 187.550781 C 362.675781 284.082031 284.082031 362.675781 187.550781 362.675781 Z M 187.550781 15.011719 C 92.394531 15.011719 15.011719 92.394531 15.011719 187.550781 C 15.011719 282.703125 92.394531 360.085938 187.550781 360.085938 C 282.703125 360.085938 360.085938 282.703125 360.085938 187.550781 C 360.085938 92.394531 282.703125 15.011719 187.550781 15.011719 Z M 187.550781 15.011719 " fill-opacity="1" fill-rule="nonzero"/></g><g transform="matrix(1, 0, 0, 1, 64, 2)"><g clip-path="url(#0978bb0658)"><g fill="#000000" fill-opacity="1"><g transform="translate(1.227133, 292.179947)"><g><path d="M 9.75 -220.46875 L 69.546875 -220.46875 C 85.628906 -220.46875 97.304688 -216.53125 104.578125 -208.65625 C 111.859375 -200.789062 115.5 -187.957031 115.5 -170.15625 L 115.5 -160.40625 C 115.5 -139.363281 107.96875 -126.789062 92.90625 -122.6875 C 102.144531 -120.289062 108.644531 -114.726562 112.40625 -106 C 116.175781 -97.269531 118.0625 -85.71875 118.0625 -71.34375 C 118.0625 -47.90625 114.550781 -30.15625 107.53125 -18.09375 C 100.519531 -6.03125 87.859375 0 69.546875 0 L 9.75 0 Z M 61.859375 -137.5625 C 65.617188 -137.5625 68.179688 -138.972656 69.546875 -141.796875 C 70.921875 -144.617188 71.609375 -148.597656 71.609375 -153.734375 L 71.609375 -175.8125 C 71.609375 -183 68.441406 -186.59375 62.109375 -186.59375 L 52.875 -186.59375 L 52.875 -137.5625 Z M 57.234375 -38.75 C 68.703125 -38.75 74.4375 -44.226562 74.4375 -55.1875 L 74.4375 -82.640625 C 74.4375 -89.316406 73.453125 -94.363281 71.484375 -97.78125 C 69.515625 -101.207031 66.046875 -102.921875 61.078125 -102.921875 L 52.875 -102.921875 L 52.875 -39.015625 Z M 57.234375 -38.75 "/></g></g></g><g fill="#000000" fill-opacity="1"><g transform="translate(124.16216, 292.179947)"><g><path d="M 9.75 -220.46875 L 69.546875 -220.46875 C 85.628906 -220.46875 97.304688 -216.53125 104.578125 -208.65625 C 111.859375 -200.789062 115.5 -187.957031 115.5 -170.15625 L 115.5 -160.40625 C 115.5 -139.363281 107.96875 -126.789062 92.90625 -122.6875 C 102.144531 -120.289062 108.644531 -114.726562 112.40625 -106 C 116.175781 -97.269531 118.0625 -85.71875 118.0625 -71.34375 C 118.0625 -47.90625 114.550781 -30.15625 107.53125 -18.09375 C 100.519531 -6.03125 87.859375 0 69.546875 0 L 9.75 0 Z M 61.859375 -137.5625 C 65.617188 -137.5625 68.179688 -138.972656 69.546875 -141.796875 C 70.921875 -144.617188 71.609375 -148.597656 71.609375 -153.734375 L 71.609375 -175.8125 C 71.609375 -183 68.441406 -186.59375 62.109375 -186.59375 L 52.875 -186.59375 L 52.875 -137.5625 Z M 57.234375 -38.75 C 68.703125 -38.75 74.4375 -44.226562 74.4375 -55.1875 L 74.4375 -82.640625 C 74.4375 -89.316406 73.453125 -94.363281 71.484375 -97.78125 C 69.515625 -101.207031 66.046875 -102.921875 61.078125 -102.921875 L 52.875 -102.921875 L 52.875 -39.015625 Z M 57.234375 -38.75 "/></g></g></g></g></g></svg>